<svg width="705" height="504" viewBox="0 0 705 504" fill="none" xmlns="http://www.w3.org/2000/svg">
<path opacity="0.1" d="M272.165 32.7594L0.046875 203.516L429.531 471.836L704.154 298.374L272.165 32.7594Z" fill="#D1D3D4"/>
<path opacity="0.1214" d="M272.307 33.2018L0.865234 203.533L429.279 471.19L703.24 298.152L272.307 33.2018Z" fill="#D0D2D3"/>
<path opacity="0.1429" d="M272.465 33.6443L1.68457 203.55L429.043 470.543L702.327 297.948L272.465 33.6443Z" fill="#CFD1D2"/>
<path opacity="0.1643" d="M272.606 34.0868L2.4873 203.584L428.806 469.913L701.413 297.727L272.606 34.0868Z" fill="#CED0D1"/>
<path opacity="0.1857" d="M272.748 34.5292L3.30664 203.601L428.571 469.267L700.484 297.523L272.748 34.5292Z" fill="#CDCFD0"/>
<path opacity="0.2071" d="M272.905 34.9717L4.125 203.618L428.318 468.62L699.571 297.302L272.905 34.9717Z" fill="#CCCECF"/>
<path opacity="0.2286" d="M273.047 35.3972L4.94434 203.635L428.082 467.99L698.658 297.08L273.047 35.3972Z" fill="#CBCDCE"/>
<path opacity="0.25" d="M273.189 35.8397L5.76367 203.653L427.847 467.344L697.745 296.876L273.189 35.8397Z" fill="#CACCCD"/>
<path opacity="0.2714" d="M273.346 36.2819L6.58203 203.669L427.61 466.714L696.831 296.655L273.346 36.2819Z" fill="#C9CBCC"/>
<path opacity="0.2929" d="M273.488 36.7244L7.38477 203.686L427.358 466.067L695.917 296.451L273.488 36.7244Z" fill="#C8CACB"/>
<path opacity="0.3143" d="M273.63 37.1668L8.2041 203.72L427.122 465.421L694.989 296.229L273.63 37.1668Z" fill="#C7C9CA"/>
<path opacity="0.3357" d="M273.788 37.6094L9.02344 203.737L426.886 464.791L694.076 296.025L273.788 37.6094Z" fill="#C6C8C9"/>
<path opacity="0.3571" d="M273.929 38.0349L9.8418 203.754L426.634 464.144L693.162 295.804L273.929 38.0349Z" fill="#C5C7C8"/>
<path opacity="0.3786" d="M274.071 38.4774L10.6611 203.772L426.398 463.498L692.249 295.583L274.071 38.4774Z" fill="#C4C6C7"/>
<path opacity="0.4" d="M274.228 38.9197L11.4639 203.788L426.161 462.868L691.335 295.378L274.228 38.9197Z" fill="#C3C5C6"/>
<path opacity="0.4214" d="M274.371 39.3622L12.2832 203.806L425.926 462.221L690.422 295.157L274.371 39.3622Z" fill="#C2C4C5"/>
<path opacity="0.4429" d="M274.512 39.8047L13.1016 203.823L425.673 461.575L689.493 294.953L274.512 39.8047Z" fill="#C1C3C4"/>
<path opacity="0.4643" d="M274.654 40.2471L13.9209 203.857L425.437 460.945L688.58 294.732L274.654 40.2471Z" fill="#C0C2C3"/>
<path opacity="0.4857" d="M274.811 40.6726L14.7393 203.874L425.201 460.298L687.666 294.528L274.811 40.6726Z" fill="#BFC1C2"/>
<path opacity="0.5071" d="M274.953 41.1152L15.5586 203.891L424.965 459.669L686.753 294.306L274.953 41.1152Z" fill="#BEC0C1"/>
<path opacity="0.5286" d="M275.094 41.5577L16.3613 203.908L424.712 459.022L685.839 294.085L275.094 41.5577Z" fill="#BDBFC0"/>
<path opacity="0.55" d="M275.252 42.0001L17.1807 203.925L424.477 458.375L684.911 293.881L275.252 42.0001Z" fill="#BDBFC0"/>
<path opacity="0.5714" d="M275.394 42.4424L17.999 203.942L424.24 457.746L683.997 293.66L275.394 42.4424Z" fill="#BCBEBF"/>
<path opacity="0.5929" d="M275.536 42.8848L18.8184 203.959L423.988 457.099L683.084 293.455L275.536 42.8848Z" fill="#BBBDBE"/>
<path opacity="0.6143" d="M275.693 43.3103L19.6367 203.993L423.752 456.452L682.17 293.234L275.693 43.3103Z" fill="#BABCBD"/>
<path opacity="0.6357" d="M275.835 43.7528L20.4561 204.01L423.516 455.823L681.257 293.03L275.835 43.7528Z" fill="#B9BBBC"/>
<path opacity="0.6571" d="M275.976 44.1953L21.2588 204.027L423.279 455.176L680.343 292.809L275.976 44.1953Z" fill="#B8BABB"/>
<path opacity="0.6786" d="M276.134 44.6377L22.0781 204.044L423.028 454.529L679.415 292.587L276.134 44.6377Z" fill="#B7B9BA"/>
<path opacity="0.7" d="M276.275 45.0802L22.8965 204.061L422.791 453.9L678.501 292.383L276.275 45.0802Z" fill="#B6B8B9"/>
<path opacity="0.7214" d="M276.418 45.5057L23.7158 204.078L422.555 453.253L677.588 292.162L276.418 45.5057Z" fill="#B5B7B8"/>
<path opacity="0.7429" d="M276.575 45.9481L24.5342 204.095L422.319 452.606L676.674 291.958L276.575 45.9481Z" fill="#B4B6B7"/>
<path opacity="0.7643" d="M276.717 46.3906L25.3379 204.129L422.067 451.977L675.761 291.737L276.717 46.3906Z" fill="#B3B5B6"/>
<path opacity="0.7857" d="M276.858 46.8331L26.1562 204.146L421.831 451.33L674.847 291.532L276.858 46.8331Z" fill="#B2B4B5"/>
<path opacity="0.8071" d="M277 47.2756L26.9756 204.163L421.595 450.7L673.919 291.311L277 47.2756Z" fill="#B1B3B4"/>
<path opacity="0.8286" d="M277.157 47.718L27.7939 204.18L421.358 450.053L673.005 291.107L277.157 47.718Z" fill="#B0B2B3"/>
<path opacity="0.85" d="M277.299 48.1435L28.6133 204.197L421.107 449.407L672.092 290.886L277.299 48.1435Z" fill="#AFB1B2"/>
<path opacity="0.8714" d="M277.441 48.586L29.4316 204.214L420.87 448.777L671.178 290.665L277.441 48.586Z" fill="#AEB0B1"/>
<path opacity="0.8929" d="M277.599 49.0284L30.2354 204.231L420.634 448.131L670.265 290.46L277.599 49.0284Z" fill="#ADAFB0"/>
<path opacity="0.9143" d="M277.74 49.4708L31.0537 204.265L420.382 447.484L669.351 290.239L277.74 49.4708Z" fill="#ACAEAF"/>
<path opacity="0.9357" d="M277.882 49.9131L31.873 204.282L420.146 446.854L668.423 290.035L277.882 49.9131Z" fill="#ABADAE"/>
<path opacity="0.9571" d="M278.039 50.3557L32.6914 204.299L419.909 446.207L667.509 289.814L278.039 50.3557Z" fill="#AAACAD"/>
<path opacity="0.9786" d="M278.181 50.7811L33.5107 204.316L419.673 445.561L666.596 289.609L278.181 50.7811Z" fill="#A9ABAC"/>
<path d="M278.323 51.2237L34.3135 204.333L419.421 444.931L665.682 289.388L278.323 51.2237Z" fill="#A8AAAB"/>
<path d="M429.531 468.093L704.154 294.63L603.684 205.933L500.175 168.596L398.713 83.5576L272.165 29.0155L0.046875 199.772L124.5 254.315L227.537 341.327L329.03 378.392L429.531 468.093Z" fill="white"/>
<path d="M146.437 90.5689C146.169 90.5689 145.902 90.4157 145.76 90.1434C145.539 89.735 145.665 89.2245 146.043 88.9862L287.85 0L288.213 0.15316L359.171 30.7342C359.581 30.9044 359.77 31.3979 359.612 31.8404C359.455 32.2828 358.998 32.487 358.589 32.3169L287.976 1.88898L146.831 90.4668C146.705 90.5349 146.563 90.5689 146.437 90.5689Z" fill="url(#paint0_linear)"/>
<path d="M332.919 370.836L231.332 333.72L128.484 246.878L17.8887 198.411L272.811 38.4603L394.76 91.0284L496.395 176.203L599.826 213.523L690.39 293.455L430.303 457.746L332.919 370.836Z" fill="url(#paint1_linear)"/>
<path d="M281.032 127.004L271.583 133.233L283.126 147.987L299.929 138.917L281.032 127.004Z" fill="url(#paint2_linear)"/>
<path d="M217.286 321.858L275.174 282.581L294.827 298.374C295.032 298.527 295.252 298.663 295.488 298.748L307.646 303.19L277.993 321.926L280.371 326.334L314.496 304.772C315.299 304.262 315.74 303.309 315.661 302.305C315.567 301.301 314.937 300.467 314.071 300.143L297.362 294.034L279.473 279.654L296.449 268.133L293.929 263.81L213.317 318.523L217.286 321.858Z" fill="url(#paint3_linear)"/>
<path d="M89.6826 173.241L37.1328 206.852L42.6445 209.251L95.0997 175.709L94.895 175.335L118.784 184.984L120.438 180.202L75.6987 162.146L70.4075 165.464L89.6826 173.241Z" fill="url(#paint4_linear)"/>
<path d="M226.388 183.503C226.703 183.656 227.018 183.724 227.348 183.724C227.789 183.724 228.214 183.588 228.608 183.333L248.23 170.025L255.584 173.412L297.803 215.65L301.016 211.906L291.126 202.019L342.888 167.745C343.534 167.319 343.944 166.587 344.007 165.788C344.07 164.988 343.77 164.188 343.219 163.66L314.354 136.143C314.259 136.057 314.165 135.972 314.055 135.904L283.079 114.632L280.544 118.938L311.362 140.108L325.913 153.96L276.04 186.924L258.497 169.361C258.292 169.157 258.072 169.004 257.82 168.885L191.68 138.389L189.822 143.086L242.938 167.575L227.159 178.262L145.508 138.933L177.381 118.257L174.956 113.883L140.248 136.398L126.942 129.982L121.902 133.147L226.388 183.503ZM329.613 157.5L337.692 165.209L287.52 198.428L279.63 190.532L329.613 157.5Z" fill="url(#paint5_linear)"/>
<path d="M515.198 364.539L511.923 368.232L534.678 391.819L538.914 389.13L515.198 364.539Z" fill="url(#paint6_linear)"/>
<path d="M340.054 352.643L337.471 348.355L314.952 364.267L320.653 366.343L340.054 352.643Z" fill="url(#paint7_linear)"/>
<path d="M545.355 269.239C545.512 270.209 546.158 270.992 547.04 271.264L583.779 282.615L585.07 277.714L549.764 266.805L547.748 253.974L605.259 218.322L601.338 214.867L546.898 248.613L545.812 241.738C545.686 240.938 545.213 240.258 544.552 239.9L533.387 233.74L578.33 205.779L572.33 203.618L528.347 230.966L494.144 212.093L492.002 216.637L541.339 243.848L545.355 269.239Z" fill="url(#paint8_linear)"/>
<path d="M419.044 111.365L401.107 122.511L403.454 126.936L423.075 114.751L419.044 111.365Z" fill="url(#paint9_linear)"/>
<path d="M341.392 204.146L405.438 201.304L463.704 188.268L492.05 204.146L442.697 237.041L424.855 231.936L344.022 263.147L319.346 213.795L341.392 204.146Z" fill="url(#paint10_linear)"/>
<path d="M271.048 35.6694L169.476 101.188L207.27 121.609L249.788 102.89L279.709 105.443L330.101 75.6613L325.377 59.4944L271.048 35.6694Z" fill="url(#paint11_linear)"/>
<path d="M366.321 278.173L316.716 296.893L317.503 307.955L324.59 329.227L363.959 347.947L371.045 353.052L374.982 356.455L447.421 373.473L464.743 386.237L500.963 362.412L483.64 330.929L500.963 294.34L484.428 279.875L426.949 251.796L366.321 278.173Z" fill="url(#paint12_linear)"/>
<path d="M366.321 278.173L316.716 296.893L317.503 307.955L324.59 329.227L363.959 347.947L371.045 353.052L374.982 356.455L447.421 373.473L464.743 386.237L500.963 362.412L483.64 330.929L500.963 294.34L484.428 279.875L426.949 251.796L366.321 278.173Z" fill="url(#paint13_linear)"/>
<path d="M378.714 411.695L421.437 449.815C425.721 425.565 433.358 375.328 435.894 339.71C438.271 306.321 411.957 289.967 398.099 273.902C389.58 264.032 386.367 254.655 382.887 243.1C378.431 228.311 381.029 214.731 384.021 199.007C387.108 182.857 394.84 162.52 389.69 142.303C383.911 119.618 354.778 108.046 325.944 92.3048C303.283 79.9328 283.457 60.1071 270.686 39.7878L231.805 64.1914C251.536 89.8713 287.835 101.869 316.196 117.355C333.613 126.868 353.014 145.213 355.077 153.348C358.211 165.686 355.88 177.956 353.171 192.148C349.754 210.034 340.999 231.528 348.038 254.893C353.675 273.613 364.998 286.733 374.998 298.306C388.84 314.336 401.501 323.033 400.241 340.68C398.509 364.76 387.297 393.078 378.714 411.695Z" fill="url(#paint14_linear)"/>
<path d="M472.995 400.753L590.063 322.522C591.496 321.569 592.346 319.867 592.299 318.046L590.787 257.02L622.644 233.672L615.007 226.933L583.354 250.128C582.016 251.098 581.244 252.749 581.276 254.485L582.772 315.374L465.405 393.81L465.499 393.963L448.885 378.919C448.271 378.357 447.531 377.983 446.744 377.813L370.998 361.935L363.36 353.681C362.888 353.154 362.305 352.763 361.659 352.507L264.827 313.69L186.137 239.781L278.984 179.589C280.953 178.313 281.788 175.709 280.969 173.395L265.615 129.642L332.81 88.9521L367.88 103.945L467.342 188.574C467.562 188.762 467.814 188.932 468.066 189.085L495.152 204.452L439.405 242.368L444.445 251.013L534.348 189.885L522.757 185.698L503.561 198.751L503.97 197.917L472.853 180.27L373.187 95.47C372.824 95.1636 372.431 94.9084 372.006 94.7382L334.211 78.5713C332.889 78.0097 331.408 78.1118 330.164 78.8606L259.442 121.694L205.916 125.762L167.586 104.489L157.885 110.582L195.27 131.344L63.1006 218.22L74.0137 223.002L206.404 135.972L256.418 132.16L270.764 173.02L175.727 234.642C174.436 235.476 173.586 236.939 173.46 238.573C173.334 240.207 173.916 241.806 175.066 242.878L259.316 322.011C259.741 322.42 260.245 322.726 260.765 322.947L289.693 334.553L270.67 348.1L282.024 352.252L300.685 338.978L357.423 361.731L365.36 370.308C366.022 371.023 366.872 371.516 367.801 371.703L443.767 387.615L483.877 423.931L492.538 418.451L472.995 400.753Z" fill="url(#paint15_linear)"/>
<path d="M497.309 267.146C496.821 266.67 496.254 266.278 495.64 265.989L429.5 234.506C428.036 233.808 426.382 233.74 424.87 234.319L316.385 275.604L282.087 245.465C284.37 242.589 285.63 239.22 285.63 235.68C285.63 234.012 285.331 232.413 284.795 230.847L331.172 203.176L402.241 197.339C403.202 197.254 404.146 196.947 404.981 196.403L470.397 154.42L459.704 145.452L399.816 183.878L328.841 189.715C327.944 189.783 327.062 190.072 326.275 190.549L275.803 220.67C271.315 218.135 265.709 216.739 259.835 216.739C256.67 216.739 253.584 217.148 250.702 217.913L222.262 192.931C221.789 192.523 221.285 192.182 220.718 191.944L108.989 141.248L95.3359 149.825L215.033 204.095L238.655 224.84C235.868 227.903 234.309 231.613 234.309 235.527C234.309 238.08 234.986 240.53 236.214 242.793L172.877 284.368L183.491 293.336L246.686 251.847C250.67 253.566 255.3 254.502 260.087 254.502C263.757 254.502 267.331 253.94 270.591 252.919L311.188 288.588C312.889 290.086 315.188 290.511 317.251 289.729L426.713 248.086L489.656 278.037L578.425 364.233L589.842 357.017L497.309 267.146ZM270.544 238.267C267.898 239.917 264.087 240.87 260.087 240.87C256.04 240.87 252.166 239.9 249.473 238.216C247.552 237.024 246.907 235.867 246.907 235.527C246.907 235.204 247.537 234.08 249.379 232.923C252.025 231.272 255.836 230.319 259.835 230.319C263.883 230.319 267.756 231.289 270.449 232.974C272.371 234.165 273.016 235.323 273.016 235.68C273.016 236.003 272.402 237.11 270.544 238.267Z" fill="url(#paint16_linear)"/>
<path d="M591.512 354.754L574.977 336.885L597.023 321.569L623.007 248.392L632.455 244.138L688.359 293.49L591.512 354.754Z" fill="url(#paint17_linear)"/>
<path d="M171.838 279.875L131.681 247.541L127.744 215.207L110.422 203.295L148.216 177.768L206.482 202.444L202.545 214.357L171.838 233.927L158.452 243.287L178.924 249.243L185.223 273.919L171.838 279.875Z" fill="url(#paint18_linear)"/>
<path d="M508.585 230.949C508.318 230.949 508.05 230.881 507.782 230.762L504.9 229.366C503.908 228.89 503.467 227.63 503.908 226.558C504.349 225.486 505.514 225.01 506.507 225.486L509.388 226.882C510.381 227.358 510.821 228.617 510.381 229.69C510.05 230.472 509.325 230.949 508.585 230.949Z" fill="url(#paint19_linear)"/>
<path d="M500.066 226.848C499.798 226.848 499.53 226.78 499.263 226.66L493.625 223.938C492.633 223.461 492.192 222.202 492.633 221.13C493.074 220.058 494.239 219.581 495.231 220.058L500.869 222.78C501.861 223.257 502.302 224.516 501.861 225.588C501.53 226.371 500.822 226.848 500.066 226.848Z" fill="url(#paint20_linear)"/>
<path d="M483.231 221.777C482.57 221.777 481.908 221.419 481.546 220.755C480.979 219.751 481.278 218.441 482.207 217.828L484.9 216.059C485.451 215.701 486.129 215.65 486.727 215.939L489.609 217.335C490.601 217.811 491.042 219.071 490.601 220.143C490.16 221.215 488.995 221.691 488.002 221.215L486.066 220.279L484.255 221.47C483.924 221.674 483.577 221.777 483.231 221.777Z" fill="url(#paint21_linear)"/>
<path d="M450.129 243.44C449.468 243.44 448.807 243.083 448.444 242.419C447.877 241.415 448.177 240.104 449.106 239.492L454.617 235.884C455.547 235.271 456.759 235.595 457.326 236.599C457.893 237.603 457.594 238.913 456.665 239.526L451.153 243.134C450.822 243.338 450.476 243.44 450.129 243.44ZM461.169 236.224C460.507 236.224 459.861 235.867 459.483 235.203C458.917 234.199 459.216 232.889 460.145 232.276L465.657 228.668C466.586 228.056 467.798 228.379 468.365 229.383C468.932 230.387 468.633 231.698 467.704 232.31L462.192 235.918C461.861 236.122 461.515 236.224 461.169 236.224ZM472.192 229.009C471.53 229.009 470.885 228.651 470.507 227.988C469.94 226.984 470.239 225.673 471.168 225.061L476.68 221.453C477.609 220.84 478.822 221.164 479.388 222.168C479.955 223.172 479.656 224.482 478.727 225.095L473.215 228.703C472.9 228.907 472.538 229.009 472.192 229.009Z" fill="url(#paint22_linear)"/>
<path d="M441.91 248.818C441.673 248.818 441.453 248.767 441.233 248.682L438.272 247.507C437.248 247.099 436.729 245.874 437.107 244.767C437.485 243.661 438.618 243.1 439.642 243.508L441.705 244.325L443.595 243.1C444.524 242.487 445.736 242.81 446.303 243.814C446.87 244.818 446.571 246.129 445.642 246.741L442.949 248.511C442.618 248.716 442.272 248.818 441.91 248.818Z" fill="url(#paint23_linear)"/>
<path d="M323.882 282.088C323.063 282.088 322.307 281.543 322.023 280.675C321.661 279.569 322.197 278.344 323.22 277.969L328.984 275.774C330.007 275.383 331.125 275.961 331.488 277.067C331.85 278.173 331.314 279.399 330.291 279.773L324.527 281.968C324.307 282.054 324.086 282.088 323.882 282.088ZM335.393 277.697C334.574 277.697 333.818 277.152 333.535 276.284C333.173 275.178 333.708 273.953 334.732 273.579L340.495 271.383C341.519 270.992 342.637 271.571 342.999 272.677C343.361 273.783 342.826 275.008 341.802 275.383L336.039 277.578C335.818 277.663 335.598 277.697 335.393 277.697ZM346.905 273.323C346.086 273.323 345.33 272.779 345.046 271.911C344.684 270.805 345.22 269.579 346.243 269.205L352.007 267.01C353.03 266.618 354.164 267.197 354.511 268.303C354.873 269.409 354.337 270.635 353.314 271.009L347.55 273.204C347.346 273.289 347.125 273.323 346.905 273.323ZM358.416 268.933C357.597 268.933 356.841 268.388 356.558 267.52C356.196 266.414 356.731 265.189 357.755 264.814L363.518 262.619C364.542 262.228 365.676 262.806 366.022 263.912C366.384 265.019 365.849 266.244 364.825 266.618L359.062 268.814C358.857 268.899 358.637 268.933 358.416 268.933ZM369.928 264.559C369.109 264.559 368.353 264.015 368.069 263.13C367.707 262.024 368.243 260.798 369.266 260.424L375.03 258.229C376.053 257.837 377.187 258.416 377.534 259.522C377.896 260.628 377.36 261.853 376.337 262.228L370.573 264.423C370.369 264.525 370.148 264.559 369.928 264.559ZM381.455 260.169C380.636 260.169 379.88 259.624 379.597 258.756C379.234 257.65 379.77 256.425 380.793 256.05L386.557 253.855C387.581 253.464 388.714 254.042 389.061 255.148C389.423 256.254 388.888 257.48 387.864 257.854L382.1 260.049C381.88 260.135 381.66 260.169 381.455 260.169ZM392.966 255.795C392.147 255.795 391.392 255.25 391.108 254.382C390.746 253.276 391.281 252.051 392.305 251.677L398.069 249.481C399.092 249.09 400.21 249.669 400.572 250.775C400.935 251.881 400.399 253.106 399.376 253.481L393.612 255.676C393.392 255.761 393.187 255.795 392.966 255.795ZM404.478 251.421C403.659 251.421 402.903 250.877 402.62 250.009C402.257 248.903 402.793 247.677 403.816 247.303L409.58 245.108C410.604 244.716 411.722 245.295 412.084 246.401C412.446 247.507 411.911 248.733 410.887 249.107L405.124 251.302C404.919 251.37 404.698 251.421 404.478 251.421ZM415.989 247.031C415.17 247.031 414.415 246.486 414.131 245.618C413.769 244.512 414.304 243.287 415.328 242.912L421.092 240.717C422.115 240.326 423.249 240.904 423.595 242.011C423.958 243.117 423.422 244.342 422.399 244.716L416.635 246.912C416.43 246.997 416.21 247.031 415.989 247.031ZM433.233 245.363C433.012 245.363 432.776 245.329 432.556 245.227L426.824 242.947C425.8 242.538 425.28 241.313 425.658 240.207C426.036 239.1 427.17 238.539 428.194 238.947L433.926 241.228C434.949 241.636 435.469 242.861 435.091 243.951C434.792 244.836 434.036 245.363 433.233 245.363Z" fill="url(#paint24_linear)"/>
<path d="M315.141 285.406C314.7 285.406 314.259 285.236 313.897 284.93L311.456 282.785C310.606 282.037 310.48 280.709 311.173 279.79C311.866 278.871 313.094 278.735 313.944 279.484L315.535 280.879L317.472 280.148C318.495 279.756 319.613 280.335 319.976 281.441C320.338 282.547 319.802 283.772 318.779 284.147L315.803 285.27C315.582 285.372 315.362 285.406 315.141 285.406Z" fill="url(#paint25_linear)"/>
<path d="M308.354 279.45C307.913 279.45 307.472 279.297 307.11 278.973L302.764 275.161C301.913 274.412 301.787 273.085 302.48 272.166C303.173 271.247 304.401 271.111 305.252 271.86L309.598 275.672C310.448 276.421 310.574 277.748 309.882 278.667C309.504 279.177 308.937 279.45 308.354 279.45ZM299.677 271.809C299.236 271.809 298.795 271.656 298.433 271.332L294.087 267.52C293.236 266.771 293.11 265.444 293.803 264.525C294.496 263.606 295.724 263.47 296.575 264.219L300.921 268.031C301.771 268.78 301.897 270.107 301.205 271.026C300.811 271.536 300.244 271.809 299.677 271.809ZM290.984 264.185C290.543 264.185 290.103 264.032 289.74 263.708L285.394 259.896C284.544 259.147 284.418 257.82 285.111 256.901C285.803 255.982 287.032 255.846 287.882 256.595L292.228 260.407C293.079 261.156 293.205 262.483 292.512 263.402C292.118 263.912 291.551 264.185 290.984 264.185ZM282.292 256.544C281.851 256.544 281.41 256.391 281.048 256.067L276.701 252.255C275.851 251.506 275.725 250.179 276.418 249.26C277.111 248.341 278.339 248.205 279.189 248.954L283.536 252.766C284.386 253.515 284.512 254.842 283.819 255.761C283.441 256.271 282.874 256.544 282.292 256.544Z" fill="url(#paint26_linear)"/>
<path d="M273.615 248.92C273.174 248.92 272.733 248.767 272.371 248.443L269.93 246.299C269.458 245.891 269.19 245.261 269.206 244.614C269.221 243.968 269.505 243.355 269.977 242.964C269.977 242.964 270.922 242.181 271.977 240.887C272.702 240.003 273.946 239.934 274.749 240.7C275.568 241.483 275.631 242.827 274.922 243.695C274.67 244.002 274.434 244.291 274.198 244.546L274.875 245.142C275.725 245.874 275.851 247.218 275.158 248.137C274.749 248.648 274.182 248.92 273.615 248.92Z" fill="url(#paint27_linear)"/>
<path d="M276.386 239.152C276.182 239.152 275.977 239.118 275.772 239.049C274.733 238.692 274.182 237.484 274.512 236.361C274.749 235.595 274.859 234.863 274.859 234.148C274.859 233.332 274.717 232.566 274.418 231.783C273.993 230.694 274.465 229.451 275.473 228.992C276.481 228.532 277.631 229.043 278.056 230.132C278.56 231.408 278.812 232.77 278.812 234.131C278.812 235.289 278.623 236.48 278.276 237.654C277.993 238.59 277.221 239.152 276.386 239.152ZM272.654 228.345C272.229 228.345 271.804 228.192 271.457 227.903C270.229 226.882 268.717 226.065 266.985 225.469C265.946 225.112 265.379 223.921 265.694 222.797C266.025 221.674 267.127 221.062 268.166 221.402C270.339 222.151 272.261 223.189 273.867 224.533C274.733 225.248 274.89 226.592 274.229 227.511C273.835 228.056 273.253 228.345 272.654 228.345ZM261.962 224.414C261.914 224.414 261.851 224.414 261.804 224.414C260.056 224.261 258.119 224.261 256.371 224.38C255.253 224.482 254.356 223.563 254.277 222.389C254.214 221.215 255.033 220.211 256.119 220.126C258.056 219.99 260.198 219.99 262.135 220.16C263.221 220.262 264.025 221.283 263.93 222.457C263.836 223.58 262.97 224.414 261.962 224.414Z" fill="url(#paint28_linear)"/>
<path d="M247.427 225.844C246.97 225.844 246.514 225.673 246.167 225.35L243.758 223.155C242.923 222.406 242.813 221.062 243.522 220.16C244.215 219.258 245.459 219.139 246.293 219.904L247.947 221.402C248.498 221.266 249.254 221.096 250.167 220.926C251.238 220.704 252.262 221.487 252.45 222.644C252.639 223.802 251.931 224.908 250.86 225.112C249.081 225.452 247.962 225.776 247.947 225.776C247.773 225.827 247.6 225.844 247.427 225.844Z" fill="url(#paint29_linear)"/>
<path d="M240.056 219.156C239.615 219.156 239.159 218.985 238.796 218.662L233.836 214.169C233.001 213.421 232.891 212.076 233.6 211.174C234.293 210.272 235.537 210.153 236.371 210.919L241.332 215.412C242.166 216.16 242.277 217.505 241.568 218.407C241.19 218.9 240.623 219.156 240.056 219.156Z" fill="url(#paint30_linear)"/>
<path d="M230.151 210.17C229.711 210.17 229.254 210 228.892 209.677L226.482 207.481C225.994 207.039 225.726 206.358 225.789 205.66C225.852 204.963 226.215 204.35 226.766 204.01L229.49 202.308C230.419 201.712 231.632 202.07 232.183 203.074C232.734 204.095 232.403 205.388 231.474 205.984L231.175 206.171L231.443 206.409C232.277 207.158 232.388 208.502 231.679 209.404C231.27 209.915 230.718 210.17 230.151 210.17Z" fill="url(#paint31_linear)"/>
<path d="M235.285 203.244C234.608 203.244 233.946 202.869 233.584 202.189C233.033 201.168 233.364 199.874 234.293 199.279L239.112 196.249C240.056 195.654 241.253 196.011 241.804 197.015C242.356 198.036 242.025 199.33 241.096 199.925L236.277 202.955C235.962 203.142 235.631 203.244 235.285 203.244ZM244.922 197.202C244.245 197.202 243.584 196.828 243.222 196.147C242.671 195.126 243.001 193.833 243.93 193.237L248.749 190.208C249.694 189.613 250.891 189.97 251.442 190.974C251.993 191.995 251.662 193.288 250.733 193.884L245.915 196.913C245.6 197.1 245.269 197.202 244.922 197.202ZM254.56 191.144C253.883 191.144 253.221 190.77 252.859 190.089C252.308 189.068 252.639 187.775 253.568 187.179L258.387 184.15C259.331 183.554 260.528 183.912 261.079 184.916C261.631 185.937 261.3 187.23 260.371 187.826L255.552 190.855C255.237 191.059 254.906 191.144 254.56 191.144ZM264.197 185.103C263.52 185.103 262.859 184.728 262.497 184.048C261.946 183.027 262.276 181.733 263.205 181.138L268.024 178.108C268.969 177.513 270.166 177.87 270.717 178.874C271.268 179.895 270.937 181.189 270.008 181.784L265.19 184.814C264.875 185.001 264.544 185.103 264.197 185.103Z" fill="url(#paint32_linear)"/>
<path d="M273.836 179.045C273.159 179.045 272.497 178.67 272.135 177.99C271.584 176.969 271.914 175.675 272.844 175.08L274.245 174.195L273.804 172.493C273.505 171.353 274.119 170.195 275.174 169.872C276.214 169.566 277.3 170.212 277.599 171.353L278.45 174.637C278.686 175.573 278.324 176.56 277.536 177.054L274.812 178.755C274.513 178.96 274.182 179.045 273.836 179.045Z" fill="url(#paint33_linear)"/>
<path d="M274.15 168.017C273.284 168.017 272.497 167.404 272.261 166.468L270.702 160.427C270.403 159.287 271.017 158.13 272.072 157.806C273.111 157.483 274.198 158.147 274.497 159.287L276.056 165.328C276.355 166.468 275.741 167.626 274.686 167.949C274.513 167.983 274.339 168.017 274.15 168.017Z" fill="url(#paint34_linear)"/>
<path d="M271.033 155.917C270.167 155.917 269.379 155.305 269.143 154.352L268.293 151.067C268.041 150.097 268.45 149.076 269.269 148.617L272.056 147.034C273.017 146.49 274.214 146.881 274.718 147.919C275.222 148.957 274.859 150.25 273.899 150.795L272.513 151.578L272.938 153.212C273.237 154.352 272.623 155.509 271.568 155.832C271.395 155.883 271.206 155.917 271.033 155.917Z" fill="url(#paint35_linear)"/>
<path d="M279.189 147.374C278.481 147.374 277.804 146.966 277.441 146.234C276.937 145.196 277.3 143.903 278.276 143.358L282.213 141.265C283.173 140.72 284.37 141.112 284.874 142.167C285.378 143.205 285.016 144.498 284.04 145.043L280.103 147.136C279.819 147.306 279.504 147.374 279.189 147.374Z" fill="url(#paint36_linear)"/>
<path d="M289.378 144.26C287.472 145.451 284.37 145.434 282.464 144.243C280.543 143.052 280.543 141.112 282.449 139.921C284.354 138.729 287.456 138.746 289.362 139.938C291.283 141.129 291.283 143.069 289.378 144.26Z" fill="url(#paint37_linear)"/>
<path d="M517.246 354.464L545.591 336.324L511.466 302.288L501.498 309.657L520.395 332.341L507.797 340.85L517.246 354.464Z" fill="url(#paint38_linear)"/>
<path d="M447.956 440.694L476.302 422.536L450.319 397.86L440.335 405.246L438.508 427.079L447.956 440.694Z" fill="url(#paint39_linear)"/>
<path d="M490.475 226.269L467.893 241.585L482.837 250.639L497.073 246.095L513.041 255.761L530.363 244.989L490.475 226.269Z" fill="url(#paint40_linear)"/>
<path d="M225.379 139.478L219.08 144.022L249.001 158.198L255.3 151.391L249.536 139.478H225.379Z" fill="url(#paint41_linear)"/>
<path d="M247.426 288.095L270.008 272.779L261.079 263.147L251.631 268.814L242.702 259.743L225.915 270.516L247.426 288.095Z" fill="url(#paint42_linear)"/>
<path d="M401.752 175.216L423.279 159.338L401.752 138.917L394.414 146.285L405.957 155.934L395.989 165.005L401.752 175.216Z" fill="url(#paint43_linear)"/>
<path d="M560.804 321.007L576.551 310.218L576.032 282.99L563.953 280.726L560.804 298.306L555.04 302.849L529.308 278.463L520.915 283.568L560.804 321.007Z" fill="url(#paint44_linear)"/>
<path d="M316.715 270.515L334.038 260.866L314.101 218.322L298.354 227.409L297.818 239.883L289.425 246.69L316.715 270.515Z" fill="url(#paint45_linear)"/>
<path d="M281.032 127.004L271.583 133.233L283.126 147.987L299.929 138.917L281.032 127.004Z" fill="#D1D3D4"/>
<path d="M217.286 321.858L275.174 282.581L294.827 298.374C295.032 298.527 295.252 298.663 295.488 298.748L307.646 303.19L277.993 321.926L280.371 326.334L314.496 304.772C315.299 304.262 315.74 303.309 315.661 302.305C315.567 301.301 314.937 300.467 314.071 300.143L297.362 294.034L279.473 279.654L296.449 268.133L293.929 263.81L213.317 318.523L217.286 321.858Z" fill="#D1D3D4"/>
<path d="M89.6826 173.241L37.1328 206.852L42.6445 209.251L95.0997 175.709L94.895 175.335L118.784 184.984L120.438 180.202L75.6987 162.146L70.4075 165.464L89.6826 173.241Z" fill="#D1D3D4"/>
<path d="M226.388 183.503C226.703 183.656 227.018 183.724 227.348 183.724C227.789 183.724 228.214 183.588 228.608 183.333L248.23 170.025L255.584 173.412L297.803 215.65L301.016 211.906L291.126 202.019L342.888 167.745C343.534 167.319 343.944 166.587 344.007 165.788C344.07 164.988 343.77 164.188 343.219 163.66L314.354 136.143C314.259 136.057 314.165 135.972 314.055 135.904L283.079 114.632L280.544 118.938L311.362 140.108L325.913 153.96L276.04 186.924L258.497 169.361C258.292 169.157 258.072 169.004 257.82 168.885L191.68 138.389L189.822 143.086L242.938 167.575L227.159 178.262L145.508 138.933L177.381 118.257L174.956 113.883L140.248 136.398L126.942 129.982L121.902 133.147L226.388 183.503ZM329.613 157.5L337.692 165.209L287.52 198.428L279.63 190.532L329.613 157.5Z" fill="#D1D3D4"/>
<path d="M515.198 364.539L511.923 368.232L534.678 391.819L538.914 389.13L515.198 364.539Z" fill="#D1D3D4"/>
<path d="M340.054 352.643L337.471 348.355L314.952 364.267L320.653 366.343L340.054 352.643Z" fill="#D1D3D4"/>
<path d="M545.355 269.239C545.512 270.209 546.158 270.992 547.04 271.264L583.779 282.615L585.07 277.714L549.764 266.805L547.748 253.974L605.259 218.322L601.338 214.867L546.898 248.613L545.812 241.738C545.686 240.938 545.213 240.258 544.552 239.9L533.387 233.74L578.33 205.779L572.33 203.618L528.347 230.966L494.144 212.093L492.002 216.637L541.339 243.848L545.355 269.239Z" fill="#D1D3D4"/>
<path d="M419.044 111.365L401.107 122.511L403.454 126.936L423.075 114.751L419.044 111.365Z" fill="#D1D3D4"/>
<path d="M341.392 204.146L405.438 201.304L463.704 188.268L492.05 204.146L442.697 237.041L424.855 231.936L344.022 263.147L319.346 213.795L341.392 204.146Z" fill="#CFE4BD"/>
<path d="M271.048 35.6694L169.476 101.188L207.27 121.609L249.788 102.89L279.709 105.443L330.101 75.6613L325.377 59.4944L271.048 35.6694Z" fill="#CFE4BD"/>
<path d="M366.321 278.173L316.716 296.893L317.503 307.955L324.59 329.227L363.959 347.947L371.045 353.052L374.982 356.455L447.421 373.473L464.743 386.237L500.963 362.412L483.64 330.929L500.963 294.34L484.428 279.875L426.949 251.796L366.321 278.173Z" fill="#CFE4BD"/>
<path d="M378.714 411.695L421.437 449.815C425.721 425.565 433.358 375.328 435.894 339.71C438.271 306.321 411.957 289.967 398.099 273.902C389.58 264.032 386.367 254.655 382.887 243.1C378.431 228.311 381.029 214.731 384.021 199.007C387.108 182.857 394.84 162.52 389.69 142.303C383.911 119.618 354.778 108.046 325.944 92.3048C303.283 79.9328 283.457 60.1071 270.686 39.7878L231.805 64.1914C251.536 89.8713 287.835 101.869 316.196 117.355C333.613 126.868 353.014 145.213 355.077 153.348C358.211 165.686 355.88 177.956 353.171 192.148C349.754 210.034 340.999 231.528 348.038 254.893C353.675 273.613 364.998 286.733 374.998 298.306C388.84 314.336 401.501 323.033 400.241 340.68C398.509 364.76 387.297 393.078 378.714 411.695Z" fill="url(#paint46_linear)"/>
<path d="M472.995 400.753L590.063 322.522C591.496 321.569 592.346 319.867 592.299 318.046L590.787 257.02L622.644 233.672L615.007 226.933L583.354 250.128C582.016 251.098 581.244 252.749 581.276 254.485L582.772 315.374L465.405 393.81L465.499 393.963L448.885 378.919C448.271 378.357 447.531 377.983 446.744 377.813L370.998 361.935L363.36 353.681C362.888 353.154 362.305 352.763 361.659 352.507L264.827 313.69L186.137 239.781L278.984 179.589C280.953 178.313 281.788 175.709 280.969 173.395L265.615 129.642L332.81 88.9521L367.88 103.945L467.342 188.574C467.562 188.762 467.814 188.932 468.066 189.085L495.152 204.452L439.405 242.368L444.445 251.013L534.348 189.885L522.757 185.698L503.561 198.751L503.97 197.917L472.853 180.27L373.187 95.47C372.824 95.1636 372.431 94.9084 372.006 94.7382L334.211 78.5713C332.889 78.0097 331.408 78.1118 330.164 78.8606L259.442 121.694L205.916 125.762L167.586 104.489L157.885 110.582L195.27 131.344L63.1006 218.22L74.0137 223.002L206.404 135.972L256.418 132.16L270.764 173.02L175.727 234.642C174.436 235.476 173.586 236.939 173.46 238.573C173.334 240.207 173.916 241.806 175.066 242.878L259.316 322.011C259.741 322.42 260.245 322.726 260.765 322.947L289.693 334.553L270.67 348.1L282.024 352.252L300.685 338.978L357.423 361.731L365.36 370.308C366.022 371.023 366.872 371.516 367.801 371.703L443.767 387.615L483.877 423.931L492.538 418.451L472.995 400.753Z" fill="#FEE2A6"/>
<path d="M497.309 267.146C496.821 266.67 496.254 266.278 495.64 265.989L429.5 234.506C428.036 233.808 426.382 233.74 424.87 234.319L316.385 275.604L282.087 245.465C284.37 242.589 285.63 239.22 285.63 235.68C285.63 234.012 285.331 232.413 284.795 230.847L331.172 203.176L402.241 197.339C403.202 197.254 404.146 196.947 404.981 196.403L470.397 154.42L459.704 145.452L399.816 183.878L328.841 189.715C327.944 189.783 327.062 190.072 326.275 190.549L275.803 220.67C271.315 218.135 265.709 216.739 259.835 216.739C256.67 216.739 253.584 217.148 250.702 217.913L222.262 192.931C221.789 192.523 221.285 192.182 220.718 191.944L108.989 141.248L95.3359 149.825L215.033 204.095L238.655 224.84C235.868 227.903 234.309 231.613 234.309 235.527C234.309 238.08 234.986 240.53 236.214 242.793L172.877 284.368L183.491 293.336L246.686 251.847C250.67 253.566 255.3 254.502 260.087 254.502C263.757 254.502 267.331 253.94 270.591 252.919L311.188 288.588C312.889 290.086 315.188 290.511 317.251 289.729L426.713 248.086L489.656 278.037L578.425 364.233L589.842 357.017L497.309 267.146ZM270.544 238.267C267.898 239.917 264.087 240.87 260.087 240.87C256.04 240.87 252.166 239.9 249.473 238.216C247.552 237.024 246.907 235.867 246.907 235.527C246.907 235.204 247.537 234.08 249.379 232.923C252.025 231.272 255.836 230.319 259.835 230.319C263.883 230.319 267.756 231.289 270.449 232.974C272.371 234.165 273.016 235.323 273.016 235.68C273.016 236.003 272.402 237.11 270.544 238.267Z" fill="url(#paint47_linear)"/>
<path d="M591.512 354.754L574.977 336.885L597.023 321.569L623.007 248.392L632.455 244.138L688.359 293.49L591.512 354.754Z" fill="#CFE4BD"/>
<path d="M171.838 279.875L131.681 247.541L127.744 215.207L110.422 203.295L148.216 177.768L206.482 202.444L202.545 214.357L171.838 233.927L158.452 243.287L178.924 249.243L185.223 273.919L171.838 279.875Z" fill="#CFE4BD"/>
<path d="M508.585 230.949C508.318 230.949 508.05 230.881 507.782 230.762L504.9 229.366C503.908 228.89 503.467 227.63 503.908 226.558C504.349 225.486 505.514 225.01 506.507 225.486L509.388 226.882C510.381 227.358 510.821 228.617 510.381 229.69C510.05 230.472 509.325 230.949 508.585 230.949Z" fill="url(#paint48_linear)"/>
<path d="M500.066 226.848C499.798 226.848 499.53 226.78 499.263 226.66L493.625 223.938C492.633 223.461 492.192 222.202 492.633 221.13C493.074 220.058 494.239 219.581 495.231 220.058L500.869 222.78C501.861 223.257 502.302 224.516 501.861 225.588C501.53 226.371 500.822 226.848 500.066 226.848Z" fill="url(#paint49_linear)"/>
<path d="M483.231 221.777C482.57 221.777 481.908 221.419 481.546 220.755C480.979 219.751 481.278 218.441 482.207 217.828L484.9 216.059C485.451 215.701 486.129 215.65 486.727 215.939L489.609 217.335C490.601 217.811 491.042 219.071 490.601 220.143C490.16 221.215 488.995 221.691 488.002 221.215L486.066 220.279L484.255 221.47C483.924 221.674 483.577 221.777 483.231 221.777Z" fill="url(#paint50_linear)"/>
<path d="M450.129 243.44C449.468 243.44 448.807 243.083 448.444 242.419C447.877 241.415 448.177 240.104 449.106 239.492L454.617 235.884C455.547 235.271 456.759 235.595 457.326 236.599C457.893 237.603 457.594 238.913 456.665 239.526L451.153 243.134C450.822 243.338 450.476 243.44 450.129 243.44ZM461.169 236.224C460.507 236.224 459.861 235.867 459.483 235.203C458.917 234.199 459.216 232.889 460.145 232.276L465.657 228.668C466.586 228.056 467.798 228.379 468.365 229.383C468.932 230.387 468.633 231.698 467.704 232.31L462.192 235.918C461.861 236.122 461.515 236.224 461.169 236.224ZM472.192 229.009C471.53 229.009 470.885 228.651 470.507 227.988C469.94 226.984 470.239 225.673 471.168 225.061L476.68 221.453C477.609 220.84 478.822 221.164 479.388 222.168C479.955 223.172 479.656 224.482 478.727 225.095L473.215 228.703C472.9 228.907 472.538 229.009 472.192 229.009Z" fill="url(#paint51_linear)"/>
<path d="M441.91 248.818C441.673 248.818 441.453 248.767 441.233 248.682L438.272 247.507C437.248 247.099 436.729 245.874 437.107 244.767C437.485 243.661 438.618 243.1 439.642 243.508L441.705 244.325L443.595 243.1C444.524 242.487 445.736 242.81 446.303 243.814C446.87 244.818 446.571 246.129 445.642 246.741L442.949 248.511C442.618 248.716 442.272 248.818 441.91 248.818Z" fill="url(#paint52_linear)"/>
<path d="M323.882 282.088C323.063 282.088 322.307 281.543 322.023 280.675C321.661 279.569 322.197 278.344 323.22 277.969L328.984 275.774C330.007 275.383 331.125 275.961 331.488 277.067C331.85 278.173 331.314 279.399 330.291 279.773L324.527 281.968C324.307 282.054 324.086 282.088 323.882 282.088ZM335.393 277.697C334.574 277.697 333.818 277.152 333.535 276.284C333.173 275.178 333.708 273.953 334.732 273.579L340.495 271.383C341.519 270.992 342.637 271.571 342.999 272.677C343.361 273.783 342.826 275.008 341.802 275.383L336.039 277.578C335.818 277.663 335.598 277.697 335.393 277.697ZM346.905 273.323C346.086 273.323 345.33 272.779 345.046 271.911C344.684 270.805 345.22 269.579 346.243 269.205L352.007 267.01C353.03 266.618 354.164 267.197 354.511 268.303C354.873 269.409 354.337 270.635 353.314 271.009L347.55 273.204C347.346 273.289 347.125 273.323 346.905 273.323ZM358.416 268.933C357.597 268.933 356.841 268.388 356.558 267.52C356.196 266.414 356.731 265.189 357.755 264.814L363.518 262.619C364.542 262.228 365.676 262.806 366.022 263.912C366.384 265.019 365.849 266.244 364.825 266.618L359.062 268.814C358.857 268.899 358.637 268.933 358.416 268.933ZM369.928 264.559C369.109 264.559 368.353 264.015 368.069 263.13C367.707 262.024 368.243 260.798 369.266 260.424L375.03 258.229C376.053 257.837 377.187 258.416 377.534 259.522C377.896 260.628 377.36 261.853 376.337 262.228L370.573 264.423C370.369 264.525 370.148 264.559 369.928 264.559ZM381.455 260.169C380.636 260.169 379.88 259.624 379.597 258.756C379.234 257.65 379.77 256.425 380.793 256.05L386.557 253.855C387.581 253.464 388.714 254.042 389.061 255.148C389.423 256.254 388.888 257.48 387.864 257.854L382.1 260.049C381.88 260.135 381.66 260.169 381.455 260.169ZM392.966 255.795C392.147 255.795 391.392 255.25 391.108 254.382C390.746 253.276 391.281 252.051 392.305 251.677L398.069 249.481C399.092 249.09 400.21 249.669 400.572 250.775C400.935 251.881 400.399 253.106 399.376 253.481L393.612 255.676C393.392 255.761 393.187 255.795 392.966 255.795ZM404.478 251.421C403.659 251.421 402.903 250.877 402.62 250.009C402.257 248.903 402.793 247.677 403.816 247.303L409.58 245.108C410.604 244.716 411.722 245.295 412.084 246.401C412.446 247.507 411.911 248.733 410.887 249.107L405.124 251.302C404.919 251.37 404.698 251.421 404.478 251.421ZM415.989 247.031C415.17 247.031 414.415 246.486 414.131 245.618C413.769 244.512 414.304 243.287 415.328 242.912L421.092 240.717C422.115 240.326 423.249 240.904 423.595 242.011C423.958 243.117 423.422 244.342 422.399 244.716L416.635 246.912C416.43 246.997 416.21 247.031 415.989 247.031ZM433.233 245.363C433.012 245.363 432.776 245.329 432.556 245.227L426.824 242.947C425.8 242.538 425.28 241.313 425.658 240.207C426.036 239.1 427.17 238.539 428.194 238.947L433.926 241.228C434.949 241.636 435.469 242.861 435.091 243.951C434.792 244.836 434.036 245.363 433.233 245.363Z" fill="url(#paint53_linear)"/>
<path d="M315.141 285.406C314.7 285.406 314.259 285.236 313.897 284.93L311.456 282.785C310.606 282.037 310.48 280.709 311.173 279.79C311.866 278.871 313.094 278.735 313.944 279.484L315.535 280.879L317.472 280.148C318.495 279.756 319.613 280.335 319.976 281.441C320.338 282.547 319.802 283.772 318.779 284.147L315.803 285.27C315.582 285.372 315.362 285.406 315.141 285.406Z" fill="url(#paint54_linear)"/>
<path d="M308.354 279.45C307.913 279.45 307.472 279.297 307.11 278.973L302.764 275.161C301.913 274.412 301.787 273.085 302.48 272.166C303.173 271.247 304.401 271.111 305.252 271.86L309.598 275.672C310.448 276.421 310.574 277.748 309.882 278.667C309.504 279.177 308.937 279.45 308.354 279.45ZM299.677 271.809C299.236 271.809 298.795 271.656 298.433 271.332L294.087 267.52C293.236 266.771 293.11 265.444 293.803 264.525C294.496 263.606 295.724 263.47 296.575 264.219L300.921 268.031C301.771 268.78 301.897 270.107 301.205 271.026C300.811 271.536 300.244 271.809 299.677 271.809ZM290.984 264.185C290.543 264.185 290.103 264.032 289.74 263.708L285.394 259.896C284.544 259.147 284.418 257.82 285.111 256.901C285.803 255.982 287.032 255.846 287.882 256.595L292.228 260.407C293.079 261.156 293.205 262.483 292.512 263.402C292.118 263.912 291.551 264.185 290.984 264.185ZM282.292 256.544C281.851 256.544 281.41 256.391 281.048 256.067L276.701 252.255C275.851 251.506 275.725 250.179 276.418 249.26C277.111 248.341 278.339 248.205 279.189 248.954L283.536 252.766C284.386 253.515 284.512 254.842 283.819 255.761C283.441 256.271 282.874 256.544 282.292 256.544Z" fill="url(#paint55_linear)"/>
<path d="M273.615 248.92C273.174 248.92 272.733 248.767 272.371 248.443L269.93 246.299C269.458 245.891 269.19 245.261 269.206 244.614C269.221 243.968 269.505 243.355 269.977 242.964C269.977 242.964 270.922 242.181 271.977 240.887C272.702 240.003 273.946 239.934 274.749 240.7C275.568 241.483 275.631 242.827 274.922 243.695C274.67 244.002 274.434 244.291 274.198 244.546L274.875 245.142C275.725 245.874 275.851 247.218 275.158 248.137C274.749 248.648 274.182 248.92 273.615 248.92Z" fill="url(#paint56_linear)"/>
<path d="M276.386 239.152C276.182 239.152 275.977 239.118 275.772 239.049C274.733 238.692 274.182 237.484 274.512 236.361C274.749 235.595 274.859 234.863 274.859 234.148C274.859 233.332 274.717 232.566 274.418 231.783C273.993 230.694 274.465 229.451 275.473 228.992C276.481 228.532 277.631 229.043 278.056 230.132C278.56 231.408 278.812 232.77 278.812 234.131C278.812 235.289 278.623 236.48 278.276 237.654C277.993 238.59 277.221 239.152 276.386 239.152ZM272.654 228.345C272.229 228.345 271.804 228.192 271.457 227.903C270.229 226.882 268.717 226.065 266.985 225.469C265.946 225.112 265.379 223.921 265.694 222.797C266.025 221.674 267.127 221.062 268.166 221.402C270.339 222.151 272.261 223.189 273.867 224.533C274.733 225.248 274.89 226.592 274.229 227.511C273.835 228.056 273.253 228.345 272.654 228.345ZM261.962 224.414C261.914 224.414 261.851 224.414 261.804 224.414C260.056 224.261 258.119 224.261 256.371 224.38C255.253 224.482 254.356 223.563 254.277 222.389C254.214 221.215 255.033 220.211 256.119 220.126C258.056 219.99 260.198 219.99 262.135 220.16C263.221 220.262 264.025 221.283 263.93 222.457C263.836 223.58 262.97 224.414 261.962 224.414Z" fill="url(#paint57_linear)"/>
<path d="M247.427 225.844C246.97 225.844 246.514 225.673 246.167 225.35L243.758 223.155C242.923 222.406 242.813 221.062 243.522 220.16C244.215 219.258 245.459 219.139 246.293 219.904L247.947 221.402C248.498 221.266 249.254 221.096 250.167 220.926C251.238 220.704 252.262 221.487 252.45 222.644C252.639 223.802 251.931 224.908 250.86 225.112C249.081 225.452 247.962 225.776 247.947 225.776C247.773 225.827 247.6 225.844 247.427 225.844Z" fill="url(#paint58_linear)"/>
<path d="M240.056 219.156C239.615 219.156 239.159 218.985 238.796 218.662L233.836 214.169C233.001 213.421 232.891 212.076 233.6 211.174C234.293 210.272 235.537 210.153 236.371 210.919L241.332 215.412C242.166 216.16 242.277 217.505 241.568 218.407C241.19 218.9 240.623 219.156 240.056 219.156Z" fill="url(#paint59_linear)"/>
<path d="M230.151 210.17C229.711 210.17 229.254 210 228.892 209.677L226.482 207.481C225.994 207.039 225.726 206.358 225.789 205.66C225.852 204.963 226.215 204.35 226.766 204.01L229.49 202.308C230.419 201.712 231.632 202.07 232.183 203.074C232.734 204.095 232.403 205.388 231.474 205.984L231.175 206.171L231.443 206.409C232.277 207.158 232.388 208.502 231.679 209.404C231.27 209.915 230.718 210.17 230.151 210.17Z" fill="url(#paint60_linear)"/>
<path d="M235.285 203.244C234.608 203.244 233.946 202.869 233.584 202.189C233.033 201.168 233.364 199.874 234.293 199.279L239.112 196.249C240.056 195.654 241.253 196.011 241.804 197.015C242.356 198.036 242.025 199.33 241.096 199.925L236.277 202.955C235.962 203.142 235.631 203.244 235.285 203.244ZM244.922 197.202C244.245 197.202 243.584 196.828 243.222 196.147C242.671 195.126 243.001 193.833 243.93 193.237L248.749 190.208C249.694 189.613 250.891 189.97 251.442 190.974C251.993 191.995 251.662 193.288 250.733 193.884L245.915 196.913C245.6 197.1 245.269 197.202 244.922 197.202ZM254.56 191.144C253.883 191.144 253.221 190.77 252.859 190.089C252.308 189.068 252.639 187.775 253.568 187.179L258.387 184.15C259.331 183.554 260.528 183.912 261.079 184.916C261.631 185.937 261.3 187.23 260.371 187.826L255.552 190.855C255.237 191.059 254.906 191.144 254.56 191.144ZM264.197 185.103C263.52 185.103 262.859 184.728 262.497 184.048C261.946 183.027 262.276 181.733 263.205 181.138L268.024 178.108C268.969 177.513 270.166 177.87 270.717 178.874C271.268 179.895 270.937 181.189 270.008 181.784L265.19 184.814C264.875 185.001 264.544 185.103 264.197 185.103Z" fill="url(#paint61_linear)"/>
<path d="M273.836 179.045C273.159 179.045 272.497 178.67 272.135 177.99C271.584 176.969 271.914 175.675 272.844 175.08L274.245 174.195L273.804 172.493C273.505 171.353 274.119 170.195 275.174 169.872C276.214 169.566 277.3 170.212 277.599 171.353L278.45 174.637C278.686 175.573 278.324 176.56 277.536 177.054L274.812 178.755C274.513 178.96 274.182 179.045 273.836 179.045Z" fill="url(#paint62_linear)"/>
<path d="M274.15 168.017C273.284 168.017 272.497 167.404 272.261 166.468L270.702 160.427C270.403 159.287 271.017 158.13 272.072 157.806C273.111 157.483 274.198 158.147 274.497 159.287L276.056 165.328C276.355 166.468 275.741 167.626 274.686 167.949C274.513 167.983 274.339 168.017 274.15 168.017Z" fill="url(#paint63_linear)"/>
<path d="M271.033 155.917C270.167 155.917 269.379 155.305 269.143 154.352L268.293 151.067C268.041 150.097 268.45 149.076 269.269 148.617L272.056 147.034C273.017 146.49 274.214 146.881 274.718 147.919C275.222 148.957 274.859 150.25 273.899 150.795L272.513 151.578L272.938 153.212C273.237 154.352 272.623 155.509 271.568 155.832C271.395 155.883 271.206 155.917 271.033 155.917Z" fill="url(#paint64_linear)"/>
<path d="M279.189 147.374C278.481 147.374 277.804 146.966 277.441 146.234C276.937 145.196 277.3 143.903 278.276 143.358L282.213 141.265C283.173 140.72 284.37 141.112 284.874 142.167C285.378 143.205 285.016 144.498 284.04 145.043L280.103 147.136C279.819 147.306 279.504 147.374 279.189 147.374Z" fill="url(#paint65_linear)"/>
<path d="M289.378 144.26C287.472 145.451 284.37 145.434 282.464 144.243C280.543 143.052 280.543 141.112 282.449 139.921C284.354 138.729 287.456 138.746 289.362 139.938C291.283 141.129 291.283 143.069 289.378 144.26Z" fill="url(#paint66_linear)"/>
<path d="M517.246 354.464L545.591 336.324L511.466 302.288L501.498 309.657L520.395 332.341L507.797 340.85L517.246 354.464Z" fill="#D1D3D4"/>
<path d="M447.956 440.694L476.302 422.536L450.319 397.86L440.335 405.246L438.508 427.079L447.956 440.694Z" fill="#D1D3D4"/>
<path d="M490.475 226.269L467.893 241.585L482.837 250.639L497.073 246.095L513.041 255.761L530.363 244.989L490.475 226.269Z" fill="#D1D3D4"/>
<path d="M225.379 139.478L219.08 144.022L249.001 158.198L255.3 151.391L249.536 139.478H225.379Z" fill="#D1D3D4"/>
<path d="M247.426 288.095L270.008 272.779L261.079 263.147L251.631 268.814L242.702 259.743L225.915 270.516L247.426 288.095Z" fill="#D1D3D4"/>
<path d="M401.752 175.216L423.279 159.338L401.752 138.917L394.414 146.285L405.957 155.934L395.989 165.005L401.752 175.216Z" fill="#D1D3D4"/>
<path d="M560.804 321.007L576.551 310.218L576.032 282.99L563.953 280.726L560.804 298.306L555.04 302.849L529.308 278.463L520.915 283.568L560.804 321.007Z" fill="#D1D3D4"/>
<path d="M316.715 270.515L334.038 260.866L314.101 218.322L298.354 227.409L297.818 239.883L289.425 246.69L316.715 270.515Z" fill="#D1D3D4"/>
<path d="M413.705 504L413.28 503.626L369.47 464.536C369.139 464.229 369.092 463.702 369.36 463.344C369.643 462.987 370.131 462.936 370.462 463.225L413.847 501.941L601.479 383.429C601.857 383.191 602.33 383.327 602.55 383.735C602.771 384.144 602.645 384.654 602.267 384.892L413.705 504Z" fill="url(#paint67_linear)"/>
<path d="M549.056 158.181C548.898 186.566 527.466 209.438 501.199 209.251C475.168 209.081 454.098 186.311 453.94 158.181C453.94 114.819 501.498 40.1279 501.498 40.1279C501.498 40.1279 549.056 113.611 549.056 158.181Z" fill="#F75632"/>
<path d="M549.056 158.181C549.056 186.566 527.75 209.575 501.483 209.575C477.468 209.575 457.216 190.208 454.287 164.443C469.594 187.519 499.309 192.812 520.647 176.288C533.12 166.639 540.505 151.084 540.505 134.509C540.206 124.332 538.49 114.258 535.419 104.626C543.104 123.073 549.056 142.422 549.056 158.181Z" fill="#E33629"/>
<path opacity="0.4" d="M495.546 65.2292C495.546 65.2292 468.775 116.674 467.326 145.094C467.011 149.416 469.263 153.484 472.948 155.203C473.263 155.339 473.594 155.458 473.924 155.56C477.546 156.547 481.231 154.164 482.145 150.25C482.192 150.046 482.239 149.825 482.271 149.621L495.546 65.2292Z" fill="#EEEFEE"/>
<defs>
<linearGradient id="paint0_linear" x1="145.306" y1="64.4174" x2="358.072" y2="15.9306" gradientUnits="userSpaceOnUse">
<stop offset="0.00505051" stop-color="#45108A"/>
<stop offset="0.1122" stop-color="#541290"/>
<stop offset="0.3187" stop-color="#7D169E"/>
<stop offset="0.4747" stop-color="#9F19AB"/>
<stop offset="0.5773" stop-color="#A31CAD"/>
<stop offset="0.6865" stop-color="#B026B1"/>
<stop offset="0.799" stop-color="#C537B9"/>
<stop offset="0.9128" stop-color="#E34DC4"/>
<stop offset="1" stop-color="#FF63CE"/>
</linearGradient>
<linearGradient id="paint1_linear" x1="519.244" y1="588.951" x2="198.454" y2="18.2613" gradientUnits="userSpaceOnUse">
<stop offset="0.0758" stop-color="#F0EFF2"/>
<stop offset="1" stop-color="white"/>
</linearGradient>
<linearGradient id="paint2_linear" x1="637.716" y1="170.219" x2="46.0518" y2="296.281" gradientUnits="userSpaceOnUse">
<stop offset="0.00505051" stop-color="#45108A"/>
<stop offset="0.1122" stop-color="#541290"/>
<stop offset="0.3187" stop-color="#7D169E"/>
<stop offset="0.4747" stop-color="#9F19AB"/>
<stop offset="0.5773" stop-color="#A31CAD"/>
<stop offset="0.6865" stop-color="#B026B1"/>
<stop offset="0.799" stop-color="#C537B9"/>
<stop offset="0.9128" stop-color="#E34DC4"/>
<stop offset="1" stop-color="#FF63CE"/>
</linearGradient>
<linearGradient id="paint3_linear" x1="637.717" y1="170.219" x2="46.0523" y2="296.281" gradientUnits="userSpaceOnUse">
<stop offset="0.00505051" stop-color="#45108A"/>
<stop offset="0.1122" stop-color="#541290"/>
<stop offset="0.3187" stop-color="#7D169E"/>
<stop offset="0.4747" stop-color="#9F19AB"/>
<stop offset="0.5773" stop-color="#A31CAD"/>
<stop offset="0.6865" stop-color="#B026B1"/>
<stop offset="0.799" stop-color="#C537B9"/>
<stop offset="0.9128" stop-color="#E34DC4"/>
<stop offset="1" stop-color="#FF63CE"/>
</linearGradient>
<linearGradient id="paint4_linear" x1="637.716" y1="170.219" x2="46.052" y2="296.281" gradientUnits="userSpaceOnUse">
<stop offset="0.00505051" stop-color="#45108A"/>
<stop offset="0.1122" stop-color="#541290"/>
<stop offset="0.3187" stop-color="#7D169E"/>
<stop offset="0.4747" stop-color="#9F19AB"/>
<stop offset="0.5773" stop-color="#A31CAD"/>
<stop offset="0.6865" stop-color="#B026B1"/>
<stop offset="0.799" stop-color="#C537B9"/>
<stop offset="0.9128" stop-color="#E34DC4"/>
<stop offset="1" stop-color="#FF63CE"/>
</linearGradient>
<linearGradient id="paint5_linear" x1="637.717" y1="170.219" x2="46.0522" y2="296.281" gradientUnits="userSpaceOnUse">
<stop offset="0.00505051" stop-color="#45108A"/>
<stop offset="0.1122" stop-color="#541290"/>
<stop offset="0.3187" stop-color="#7D169E"/>
<stop offset="0.4747" stop-color="#9F19AB"/>
<stop offset="0.5773" stop-color="#A31CAD"/>
<stop offset="0.6865" stop-color="#B026B1"/>
<stop offset="0.799" stop-color="#C537B9"/>
<stop offset="0.9128" stop-color="#E34DC4"/>
<stop offset="1" stop-color="#FF63CE"/>
</linearGradient>
<linearGradient id="paint6_linear" x1="637.716" y1="170.219" x2="46.0514" y2="296.281" gradientUnits="userSpaceOnUse">
<stop offset="0.00505051" stop-color="#45108A"/>
<stop offset="0.1122" stop-color="#541290"/>
<stop offset="0.3187" stop-color="#7D169E"/>
<stop offset="0.4747" stop-color="#9F19AB"/>
<stop offset="0.5773" stop-color="#A31CAD"/>
<stop offset="0.6865" stop-color="#B026B1"/>
<stop offset="0.799" stop-color="#C537B9"/>
<stop offset="0.9128" stop-color="#E34DC4"/>
<stop offset="1" stop-color="#FF63CE"/>
</linearGradient>
<linearGradient id="paint7_linear" x1="637.717" y1="170.219" x2="46.052" y2="296.28" gradientUnits="userSpaceOnUse">
<stop offset="0.00505051" stop-color="#45108A"/>
<stop offset="0.1122" stop-color="#541290"/>
<stop offset="0.3187" stop-color="#7D169E"/>
<stop offset="0.4747" stop-color="#9F19AB"/>
<stop offset="0.5773" stop-color="#A31CAD"/>
<stop offset="0.6865" stop-color="#B026B1"/>
<stop offset="0.799" stop-color="#C537B9"/>
<stop offset="0.9128" stop-color="#E34DC4"/>
<stop offset="1" stop-color="#FF63CE"/>
</linearGradient>
<linearGradient id="paint8_linear" x1="637.716" y1="170.219" x2="46.0515" y2="296.281" gradientUnits="userSpaceOnUse">
<stop offset="0.00505051" stop-color="#45108A"/>
<stop offset="0.1122" stop-color="#541290"/>
<stop offset="0.3187" stop-color="#7D169E"/>
<stop offset="0.4747" stop-color="#9F19AB"/>
<stop offset="0.5773" stop-color="#A31CAD"/>
<stop offset="0.6865" stop-color="#B026B1"/>
<stop offset="0.799" stop-color="#C537B9"/>
<stop offset="0.9128" stop-color="#E34DC4"/>
<stop offset="1" stop-color="#FF63CE"/>
</linearGradient>
<linearGradient id="paint9_linear" x1="637.717" y1="170.219" x2="46.052" y2="296.281" gradientUnits="userSpaceOnUse">
<stop offset="0.00505051" stop-color="#45108A"/>
<stop offset="0.1122" stop-color="#541290"/>
<stop offset="0.3187" stop-color="#7D169E"/>
<stop offset="0.4747" stop-color="#9F19AB"/>
<stop offset="0.5773" stop-color="#A31CAD"/>
<stop offset="0.6865" stop-color="#B026B1"/>
<stop offset="0.799" stop-color="#C537B9"/>
<stop offset="0.9128" stop-color="#E34DC4"/>
<stop offset="1" stop-color="#FF63CE"/>
</linearGradient>
<linearGradient id="paint10_linear" x1="637.717" y1="170.219" x2="46.0521" y2="296.281" gradientUnits="userSpaceOnUse">
<stop offset="0.00505051" stop-color="#45108A"/>
<stop offset="0.1122" stop-color="#541290"/>
<stop offset="0.3187" stop-color="#7D169E"/>
<stop offset="0.4747" stop-color="#9F19AB"/>
<stop offset="0.5773" stop-color="#A31CAD"/>
<stop offset="0.6865" stop-color="#B026B1"/>
<stop offset="0.799" stop-color="#C537B9"/>
<stop offset="0.9128" stop-color="#E34DC4"/>
<stop offset="1" stop-color="#FF63CE"/>
</linearGradient>
<linearGradient id="paint11_linear" x1="637.716" y1="170.219" x2="46.0519" y2="296.281" gradientUnits="userSpaceOnUse">
<stop offset="0.00505051" stop-color="#45108A"/>
<stop offset="0.1122" stop-color="#541290"/>
<stop offset="0.3187" stop-color="#7D169E"/>
<stop offset="0.4747" stop-color="#9F19AB"/>
<stop offset="0.5773" stop-color="#A31CAD"/>
<stop offset="0.6865" stop-color="#B026B1"/>
<stop offset="0.799" stop-color="#C537B9"/>
<stop offset="0.9128" stop-color="#E34DC4"/>
<stop offset="1" stop-color="#FF63CE"/>
</linearGradient>
<linearGradient id="paint12_linear" x1="637.717" y1="170.219" x2="46.052" y2="296.281" gradientUnits="userSpaceOnUse">
<stop offset="0.00505051" stop-color="#45108A"/>
<stop offset="0.1122" stop-color="#541290"/>
<stop offset="0.3187" stop-color="#7D169E"/>
<stop offset="0.4747" stop-color="#9F19AB"/>
<stop offset="0.5773" stop-color="#A31CAD"/>
<stop offset="0.6865" stop-color="#B026B1"/>
<stop offset="0.799" stop-color="#C537B9"/>
<stop offset="0.9128" stop-color="#E34DC4"/>
<stop offset="1" stop-color="#FF63CE"/>
</linearGradient>
<linearGradient id="paint13_linear" x1="637.717" y1="170.219" x2="46.052" y2="296.281" gradientUnits="userSpaceOnUse">
<stop offset="0.00505051" stop-color="#45108A"/>
<stop offset="0.1122" stop-color="#541290"/>
<stop offset="0.3187" stop-color="#7D169E"/>
<stop offset="0.4747" stop-color="#9F19AB"/>
<stop offset="0.5773" stop-color="#A31CAD"/>
<stop offset="0.6865" stop-color="#B026B1"/>
<stop offset="0.799" stop-color="#C537B9"/>
<stop offset="0.9128" stop-color="#E34DC4"/>
<stop offset="1" stop-color="#FF63CE"/>
</linearGradient>
<linearGradient id="paint14_linear" x1="637.717" y1="170.219" x2="46.052" y2="296.281" gradientUnits="userSpaceOnUse">
<stop offset="0.00505051" stop-color="#45108A"/>
<stop offset="0.1122" stop-color="#541290"/>
<stop offset="0.3187" stop-color="#7D169E"/>
<stop offset="0.4747" stop-color="#9F19AB"/>
<stop offset="0.5773" stop-color="#A31CAD"/>
<stop offset="0.6865" stop-color="#B026B1"/>
<stop offset="0.799" stop-color="#C537B9"/>
<stop offset="0.9128" stop-color="#E34DC4"/>
<stop offset="1" stop-color="#FF63CE"/>
</linearGradient>
<linearGradient id="paint15_linear" x1="637.716" y1="170.219" x2="46.0519" y2="296.281" gradientUnits="userSpaceOnUse">
<stop offset="0.00505051" stop-color="#45108A"/>
<stop offset="0.1122" stop-color="#541290"/>
<stop offset="0.3187" stop-color="#7D169E"/>
<stop offset="0.4747" stop-color="#9F19AB"/>
<stop offset="0.5773" stop-color="#A31CAD"/>
<stop offset="0.6865" stop-color="#B026B1"/>
<stop offset="0.799" stop-color="#C537B9"/>
<stop offset="0.9128" stop-color="#E34DC4"/>
<stop offset="1" stop-color="#FF63CE"/>
</linearGradient>
<linearGradient id="paint16_linear" x1="637.716" y1="170.219" x2="46.052" y2="296.281" gradientUnits="userSpaceOnUse">
<stop offset="0.00505051" stop-color="#45108A"/>
<stop offset="0.1122" stop-color="#541290"/>
<stop offset="0.3187" stop-color="#7D169E"/>
<stop offset="0.4747" stop-color="#9F19AB"/>
<stop offset="0.5773" stop-color="#A31CAD"/>
<stop offset="0.6865" stop-color="#B026B1"/>
<stop offset="0.799" stop-color="#C537B9"/>
<stop offset="0.9128" stop-color="#E34DC4"/>
<stop offset="1" stop-color="#FF63CE"/>
</linearGradient>
<linearGradient id="paint17_linear" x1="637.717" y1="170.219" x2="46.0521" y2="296.281" gradientUnits="userSpaceOnUse">
<stop offset="0.00505051" stop-color="#45108A"/>
<stop offset="0.1122" stop-color="#541290"/>
<stop offset="0.3187" stop-color="#7D169E"/>
<stop offset="0.4747" stop-color="#9F19AB"/>
<stop offset="0.5773" stop-color="#A31CAD"/>
<stop offset="0.6865" stop-color="#B026B1"/>
<stop offset="0.799" stop-color="#C537B9"/>
<stop offset="0.9128" stop-color="#E34DC4"/>
<stop offset="1" stop-color="#FF63CE"/>
</linearGradient>
<linearGradient id="paint18_linear" x1="637.716" y1="170.219" x2="46.0517" y2="296.281" gradientUnits="userSpaceOnUse">
<stop offset="0.00505051" stop-color="#45108A"/>
<stop offset="0.1122" stop-color="#541290"/>
<stop offset="0.3187" stop-color="#7D169E"/>
<stop offset="0.4747" stop-color="#9F19AB"/>
<stop offset="0.5773" stop-color="#A31CAD"/>
<stop offset="0.6865" stop-color="#B026B1"/>
<stop offset="0.799" stop-color="#C537B9"/>
<stop offset="0.9128" stop-color="#E34DC4"/>
<stop offset="1" stop-color="#FF63CE"/>
</linearGradient>
<linearGradient id="paint19_linear" x1="637.718" y1="170.219" x2="46.0512" y2="296.281" gradientUnits="userSpaceOnUse">
<stop offset="0.00505051" stop-color="#45108A"/>
<stop offset="0.1122" stop-color="#541290"/>
<stop offset="0.3187" stop-color="#7D169E"/>
<stop offset="0.4747" stop-color="#9F19AB"/>
<stop offset="0.5773" stop-color="#A31CAD"/>
<stop offset="0.6865" stop-color="#B026B1"/>
<stop offset="0.799" stop-color="#C537B9"/>
<stop offset="0.9128" stop-color="#E34DC4"/>
<stop offset="1" stop-color="#FF63CE"/>
</linearGradient>
<linearGradient id="paint20_linear" x1="637.717" y1="170.219" x2="46.0516" y2="296.281" gradientUnits="userSpaceOnUse">
<stop offset="0.00505051" stop-color="#45108A"/>
<stop offset="0.1122" stop-color="#541290"/>
<stop offset="0.3187" stop-color="#7D169E"/>
<stop offset="0.4747" stop-color="#9F19AB"/>
<stop offset="0.5773" stop-color="#A31CAD"/>
<stop offset="0.6865" stop-color="#B026B1"/>
<stop offset="0.799" stop-color="#C537B9"/>
<stop offset="0.9128" stop-color="#E34DC4"/>
<stop offset="1" stop-color="#FF63CE"/>
</linearGradient>
<linearGradient id="paint21_linear" x1="637.717" y1="170.219" x2="46.0517" y2="296.281" gradientUnits="userSpaceOnUse">
<stop offset="0.00505051" stop-color="#45108A"/>
<stop offset="0.1122" stop-color="#541290"/>
<stop offset="0.3187" stop-color="#7D169E"/>
<stop offset="0.4747" stop-color="#9F19AB"/>
<stop offset="0.5773" stop-color="#A31CAD"/>
<stop offset="0.6865" stop-color="#B026B1"/>
<stop offset="0.799" stop-color="#C537B9"/>
<stop offset="0.9128" stop-color="#E34DC4"/>
<stop offset="1" stop-color="#FF63CE"/>
</linearGradient>
<linearGradient id="paint22_linear" x1="637.717" y1="170.219" x2="46.0516" y2="296.281" gradientUnits="userSpaceOnUse">
<stop offset="0.00505051" stop-color="#45108A"/>
<stop offset="0.1122" stop-color="#541290"/>
<stop offset="0.3187" stop-color="#7D169E"/>
<stop offset="0.4747" stop-color="#9F19AB"/>
<stop offset="0.5773" stop-color="#A31CAD"/>
<stop offset="0.6865" stop-color="#B026B1"/>
<stop offset="0.799" stop-color="#C537B9"/>
<stop offset="0.9128" stop-color="#E34DC4"/>
<stop offset="1" stop-color="#FF63CE"/>
</linearGradient>
<linearGradient id="paint23_linear" x1="637.717" y1="170.219" x2="46.0528" y2="296.28" gradientUnits="userSpaceOnUse">
<stop offset="0.00505051" stop-color="#45108A"/>
<stop offset="0.1122" stop-color="#541290"/>
<stop offset="0.3187" stop-color="#7D169E"/>
<stop offset="0.4747" stop-color="#9F19AB"/>
<stop offset="0.5773" stop-color="#A31CAD"/>
<stop offset="0.6865" stop-color="#B026B1"/>
<stop offset="0.799" stop-color="#C537B9"/>
<stop offset="0.9128" stop-color="#E34DC4"/>
<stop offset="1" stop-color="#FF63CE"/>
</linearGradient>
<linearGradient id="paint24_linear" x1="637.717" y1="170.219" x2="46.0527" y2="296.281" gradientUnits="userSpaceOnUse">
<stop offset="0.00505051" stop-color="#45108A"/>
<stop offset="0.1122" stop-color="#541290"/>
<stop offset="0.3187" stop-color="#7D169E"/>
<stop offset="0.4747" stop-color="#9F19AB"/>
<stop offset="0.5773" stop-color="#A31CAD"/>
<stop offset="0.6865" stop-color="#B026B1"/>
<stop offset="0.799" stop-color="#C537B9"/>
<stop offset="0.9128" stop-color="#E34DC4"/>
<stop offset="1" stop-color="#FF63CE"/>
</linearGradient>
<linearGradient id="paint25_linear" x1="637.717" y1="170.219" x2="46.0521" y2="296.28" gradientUnits="userSpaceOnUse">
<stop offset="0.00505051" stop-color="#45108A"/>
<stop offset="0.1122" stop-color="#541290"/>
<stop offset="0.3187" stop-color="#7D169E"/>
<stop offset="0.4747" stop-color="#9F19AB"/>
<stop offset="0.5773" stop-color="#A31CAD"/>
<stop offset="0.6865" stop-color="#B026B1"/>
<stop offset="0.799" stop-color="#C537B9"/>
<stop offset="0.9128" stop-color="#E34DC4"/>
<stop offset="1" stop-color="#FF63CE"/>
</linearGradient>
<linearGradient id="paint26_linear" x1="637.717" y1="170.219" x2="46.0521" y2="296.281" gradientUnits="userSpaceOnUse">
<stop offset="0.00505051" stop-color="#45108A"/>
<stop offset="0.1122" stop-color="#541290"/>
<stop offset="0.3187" stop-color="#7D169E"/>
<stop offset="0.4747" stop-color="#9F19AB"/>
<stop offset="0.5773" stop-color="#A31CAD"/>
<stop offset="0.6865" stop-color="#B026B1"/>
<stop offset="0.799" stop-color="#C537B9"/>
<stop offset="0.9128" stop-color="#E34DC4"/>
<stop offset="1" stop-color="#FF63CE"/>
</linearGradient>
<linearGradient id="paint27_linear" x1="637.717" y1="170.219" x2="46.0524" y2="296.281" gradientUnits="userSpaceOnUse">
<stop offset="0.00505051" stop-color="#45108A"/>
<stop offset="0.1122" stop-color="#541290"/>
<stop offset="0.3187" stop-color="#7D169E"/>
<stop offset="0.4747" stop-color="#9F19AB"/>
<stop offset="0.5773" stop-color="#A31CAD"/>
<stop offset="0.6865" stop-color="#B026B1"/>
<stop offset="0.799" stop-color="#C537B9"/>
<stop offset="0.9128" stop-color="#E34DC4"/>
<stop offset="1" stop-color="#FF63CE"/>
</linearGradient>
<linearGradient id="paint28_linear" x1="637.717" y1="170.219" x2="46.0523" y2="296.281" gradientUnits="userSpaceOnUse">
<stop offset="0.00505051" stop-color="#45108A"/>
<stop offset="0.1122" stop-color="#541290"/>
<stop offset="0.3187" stop-color="#7D169E"/>
<stop offset="0.4747" stop-color="#9F19AB"/>
<stop offset="0.5773" stop-color="#A31CAD"/>
<stop offset="0.6865" stop-color="#B026B1"/>
<stop offset="0.799" stop-color="#C537B9"/>
<stop offset="0.9128" stop-color="#E34DC4"/>
<stop offset="1" stop-color="#FF63CE"/>
</linearGradient>
<linearGradient id="paint29_linear" x1="637.717" y1="170.219" x2="46.0526" y2="296.28" gradientUnits="userSpaceOnUse">
<stop offset="0.00505051" stop-color="#45108A"/>
<stop offset="0.1122" stop-color="#541290"/>
<stop offset="0.3187" stop-color="#7D169E"/>
<stop offset="0.4747" stop-color="#9F19AB"/>
<stop offset="0.5773" stop-color="#A31CAD"/>
<stop offset="0.6865" stop-color="#B026B1"/>
<stop offset="0.799" stop-color="#C537B9"/>
<stop offset="0.9128" stop-color="#E34DC4"/>
<stop offset="1" stop-color="#FF63CE"/>
</linearGradient>
<linearGradient id="paint30_linear" x1="637.716" y1="170.219" x2="46.0519" y2="296.28" gradientUnits="userSpaceOnUse">
<stop offset="0.00505051" stop-color="#45108A"/>
<stop offset="0.1122" stop-color="#541290"/>
<stop offset="0.3187" stop-color="#7D169E"/>
<stop offset="0.4747" stop-color="#9F19AB"/>
<stop offset="0.5773" stop-color="#A31CAD"/>
<stop offset="0.6865" stop-color="#B026B1"/>
<stop offset="0.799" stop-color="#C537B9"/>
<stop offset="0.9128" stop-color="#E34DC4"/>
<stop offset="1" stop-color="#FF63CE"/>
</linearGradient>
<linearGradient id="paint31_linear" x1="637.717" y1="170.219" x2="46.0523" y2="296.281" gradientUnits="userSpaceOnUse">
<stop offset="0.00505051" stop-color="#45108A"/>
<stop offset="0.1122" stop-color="#541290"/>
<stop offset="0.3187" stop-color="#7D169E"/>
<stop offset="0.4747" stop-color="#9F19AB"/>
<stop offset="0.5773" stop-color="#A31CAD"/>
<stop offset="0.6865" stop-color="#B026B1"/>
<stop offset="0.799" stop-color="#C537B9"/>
<stop offset="0.9128" stop-color="#E34DC4"/>
<stop offset="1" stop-color="#FF63CE"/>
</linearGradient>
<linearGradient id="paint32_linear" x1="637.716" y1="170.219" x2="46.052" y2="296.281" gradientUnits="userSpaceOnUse">
<stop offset="0.00505051" stop-color="#45108A"/>
<stop offset="0.1122" stop-color="#541290"/>
<stop offset="0.3187" stop-color="#7D169E"/>
<stop offset="0.4747" stop-color="#9F19AB"/>
<stop offset="0.5773" stop-color="#A31CAD"/>
<stop offset="0.6865" stop-color="#B026B1"/>
<stop offset="0.799" stop-color="#C537B9"/>
<stop offset="0.9128" stop-color="#E34DC4"/>
<stop offset="1" stop-color="#FF63CE"/>
</linearGradient>
<linearGradient id="paint33_linear" x1="637.717" y1="170.219" x2="46.0527" y2="296.281" gradientUnits="userSpaceOnUse">
<stop offset="0.00505051" stop-color="#45108A"/>
<stop offset="0.1122" stop-color="#541290"/>
<stop offset="0.3187" stop-color="#7D169E"/>
<stop offset="0.4747" stop-color="#9F19AB"/>
<stop offset="0.5773" stop-color="#A31CAD"/>
<stop offset="0.6865" stop-color="#B026B1"/>
<stop offset="0.799" stop-color="#C537B9"/>
<stop offset="0.9128" stop-color="#E34DC4"/>
<stop offset="1" stop-color="#FF63CE"/>
</linearGradient>
<linearGradient id="paint34_linear" x1="637.718" y1="170.219" x2="46.0521" y2="296.281" gradientUnits="userSpaceOnUse">
<stop offset="0.00505051" stop-color="#45108A"/>
<stop offset="0.1122" stop-color="#541290"/>
<stop offset="0.3187" stop-color="#7D169E"/>
<stop offset="0.4747" stop-color="#9F19AB"/>
<stop offset="0.5773" stop-color="#A31CAD"/>
<stop offset="0.6865" stop-color="#B026B1"/>
<stop offset="0.799" stop-color="#C537B9"/>
<stop offset="0.9128" stop-color="#E34DC4"/>
<stop offset="1" stop-color="#FF63CE"/>
</linearGradient>
<linearGradient id="paint35_linear" x1="637.717" y1="170.219" x2="46.0526" y2="296.281" gradientUnits="userSpaceOnUse">
<stop offset="0.00505051" stop-color="#45108A"/>
<stop offset="0.1122" stop-color="#541290"/>
<stop offset="0.3187" stop-color="#7D169E"/>
<stop offset="0.4747" stop-color="#9F19AB"/>
<stop offset="0.5773" stop-color="#A31CAD"/>
<stop offset="0.6865" stop-color="#B026B1"/>
<stop offset="0.799" stop-color="#C537B9"/>
<stop offset="0.9128" stop-color="#E34DC4"/>
<stop offset="1" stop-color="#FF63CE"/>
</linearGradient>
<linearGradient id="paint36_linear" x1="637.717" y1="170.219" x2="46.0521" y2="296.281" gradientUnits="userSpaceOnUse">
<stop offset="0.00505051" stop-color="#45108A"/>
<stop offset="0.1122" stop-color="#541290"/>
<stop offset="0.3187" stop-color="#7D169E"/>
<stop offset="0.4747" stop-color="#9F19AB"/>
<stop offset="0.5773" stop-color="#A31CAD"/>
<stop offset="0.6865" stop-color="#B026B1"/>
<stop offset="0.799" stop-color="#C537B9"/>
<stop offset="0.9128" stop-color="#E34DC4"/>
<stop offset="1" stop-color="#FF63CE"/>
</linearGradient>
<linearGradient id="paint37_linear" x1="637.716" y1="170.219" x2="46.0517" y2="296.281" gradientUnits="userSpaceOnUse">
<stop offset="0.00505051" stop-color="#45108A"/>
<stop offset="0.1122" stop-color="#541290"/>
<stop offset="0.3187" stop-color="#7D169E"/>
<stop offset="0.4747" stop-color="#9F19AB"/>
<stop offset="0.5773" stop-color="#A31CAD"/>
<stop offset="0.6865" stop-color="#B026B1"/>
<stop offset="0.799" stop-color="#C537B9"/>
<stop offset="0.9128" stop-color="#E34DC4"/>
<stop offset="1" stop-color="#FF63CE"/>
</linearGradient>
<linearGradient id="paint38_linear" x1="637.716" y1="170.219" x2="46.0519" y2="296.281" gradientUnits="userSpaceOnUse">
<stop offset="0.00505051" stop-color="#45108A"/>
<stop offset="0.1122" stop-color="#541290"/>
<stop offset="0.3187" stop-color="#7D169E"/>
<stop offset="0.4747" stop-color="#9F19AB"/>
<stop offset="0.5773" stop-color="#A31CAD"/>
<stop offset="0.6865" stop-color="#B026B1"/>
<stop offset="0.799" stop-color="#C537B9"/>
<stop offset="0.9128" stop-color="#E34DC4"/>
<stop offset="1" stop-color="#FF63CE"/>
</linearGradient>
<linearGradient id="paint39_linear" x1="637.717" y1="170.219" x2="46.052" y2="296.281" gradientUnits="userSpaceOnUse">
<stop offset="0.00505051" stop-color="#45108A"/>
<stop offset="0.1122" stop-color="#541290"/>
<stop offset="0.3187" stop-color="#7D169E"/>
<stop offset="0.4747" stop-color="#9F19AB"/>
<stop offset="0.5773" stop-color="#A31CAD"/>
<stop offset="0.6865" stop-color="#B026B1"/>
<stop offset="0.799" stop-color="#C537B9"/>
<stop offset="0.9128" stop-color="#E34DC4"/>
<stop offset="1" stop-color="#FF63CE"/>
</linearGradient>
<linearGradient id="paint40_linear" x1="637.716" y1="170.219" x2="46.0517" y2="296.281" gradientUnits="userSpaceOnUse">
<stop offset="0.00505051" stop-color="#45108A"/>
<stop offset="0.1122" stop-color="#541290"/>
<stop offset="0.3187" stop-color="#7D169E"/>
<stop offset="0.4747" stop-color="#9F19AB"/>
<stop offset="0.5773" stop-color="#A31CAD"/>
<stop offset="0.6865" stop-color="#B026B1"/>
<stop offset="0.799" stop-color="#C537B9"/>
<stop offset="0.9128" stop-color="#E34DC4"/>
<stop offset="1" stop-color="#FF63CE"/>
</linearGradient>
<linearGradient id="paint41_linear" x1="637.716" y1="170.219" x2="46.0515" y2="296.281" gradientUnits="userSpaceOnUse">
<stop offset="0.00505051" stop-color="#45108A"/>
<stop offset="0.1122" stop-color="#541290"/>
<stop offset="0.3187" stop-color="#7D169E"/>
<stop offset="0.4747" stop-color="#9F19AB"/>
<stop offset="0.5773" stop-color="#A31CAD"/>
<stop offset="0.6865" stop-color="#B026B1"/>
<stop offset="0.799" stop-color="#C537B9"/>
<stop offset="0.9128" stop-color="#E34DC4"/>
<stop offset="1" stop-color="#FF63CE"/>
</linearGradient>
<linearGradient id="paint42_linear" x1="637.716" y1="170.219" x2="46.052" y2="296.281" gradientUnits="userSpaceOnUse">
<stop offset="0.00505051" stop-color="#45108A"/>
<stop offset="0.1122" stop-color="#541290"/>
<stop offset="0.3187" stop-color="#7D169E"/>
<stop offset="0.4747" stop-color="#9F19AB"/>
<stop offset="0.5773" stop-color="#A31CAD"/>
<stop offset="0.6865" stop-color="#B026B1"/>
<stop offset="0.799" stop-color="#C537B9"/>
<stop offset="0.9128" stop-color="#E34DC4"/>
<stop offset="1" stop-color="#FF63CE"/>
</linearGradient>
<linearGradient id="paint43_linear" x1="637.716" y1="170.219" x2="46.0513" y2="296.281" gradientUnits="userSpaceOnUse">
<stop offset="0.00505051" stop-color="#45108A"/>
<stop offset="0.1122" stop-color="#541290"/>
<stop offset="0.3187" stop-color="#7D169E"/>
<stop offset="0.4747" stop-color="#9F19AB"/>
<stop offset="0.5773" stop-color="#A31CAD"/>
<stop offset="0.6865" stop-color="#B026B1"/>
<stop offset="0.799" stop-color="#C537B9"/>
<stop offset="0.9128" stop-color="#E34DC4"/>
<stop offset="1" stop-color="#FF63CE"/>
</linearGradient>
<linearGradient id="paint44_linear" x1="637.717" y1="170.219" x2="46.0522" y2="296.281" gradientUnits="userSpaceOnUse">
<stop offset="0.00505051" stop-color="#45108A"/>
<stop offset="0.1122" stop-color="#541290"/>
<stop offset="0.3187" stop-color="#7D169E"/>
<stop offset="0.4747" stop-color="#9F19AB"/>
<stop offset="0.5773" stop-color="#A31CAD"/>
<stop offset="0.6865" stop-color="#B026B1"/>
<stop offset="0.799" stop-color="#C537B9"/>
<stop offset="0.9128" stop-color="#E34DC4"/>
<stop offset="1" stop-color="#FF63CE"/>
</linearGradient>
<linearGradient id="paint45_linear" x1="637.716" y1="170.219" x2="46.0516" y2="296.281" gradientUnits="userSpaceOnUse">
<stop offset="0.00505051" stop-color="#45108A"/>
<stop offset="0.1122" stop-color="#541290"/>
<stop offset="0.3187" stop-color="#7D169E"/>
<stop offset="0.4747" stop-color="#9F19AB"/>
<stop offset="0.5773" stop-color="#A31CAD"/>
<stop offset="0.6865" stop-color="#B026B1"/>
<stop offset="0.799" stop-color="#C537B9"/>
<stop offset="0.9128" stop-color="#E34DC4"/>
<stop offset="1" stop-color="#FF63CE"/>
</linearGradient>
<linearGradient id="paint46_linear" x1="232.474" y1="479.447" x2="462.423" y2="14.1863" gradientUnits="userSpaceOnUse">
<stop offset="0.0354" stop-color="#138BBD"/>
<stop offset="0.2257" stop-color="#169AC7"/>
<stop offset="0.5946" stop-color="#1FC3DF"/>
<stop offset="1" stop-color="#2AF6FF"/>
</linearGradient>
<linearGradient id="paint47_linear" x1="381.731" y1="246.794" x2="-46.9847" y2="79.468" gradientUnits="userSpaceOnUse">
<stop offset="0.0354" stop-color="#FFA98C"/>
<stop offset="0.3169" stop-color="#FFB892"/>
<stop offset="0.8601" stop-color="#FEE1A3"/>
<stop offset="1" stop-color="#FEECA8"/>
</linearGradient>
<linearGradient id="paint48_linear" x1="510.422" y1="230.481" x2="222.581" y2="53.672" gradientUnits="userSpaceOnUse">
<stop offset="0.0354" stop-color="#9F19AB"/>
<stop offset="0.2438" stop-color="#AE25B1"/>
<stop offset="0.6455" stop-color="#D744BF"/>
<stop offset="1" stop-color="#FF63CE"/>
</linearGradient>
<linearGradient id="paint49_linear" x1="509.431" y1="232.094" x2="221.588" y2="55.2841" gradientUnits="userSpaceOnUse">
<stop offset="0.0354" stop-color="#9F19AB"/>
<stop offset="0.2438" stop-color="#AE25B1"/>
<stop offset="0.6455" stop-color="#D744BF"/>
<stop offset="1" stop-color="#FF63CE"/>
</linearGradient>
<linearGradient id="paint50_linear" x1="507.652" y1="234.989" x2="219.812" y2="58.1816" gradientUnits="userSpaceOnUse">
<stop offset="0.0354" stop-color="#9F19AB"/>
<stop offset="0.2438" stop-color="#AE25B1"/>
<stop offset="0.6455" stop-color="#D744BF"/>
<stop offset="1" stop-color="#FF63CE"/>
</linearGradient>
<linearGradient id="paint51_linear" x1="495.426" y1="254.893" x2="207.583" y2="78.0825" gradientUnits="userSpaceOnUse">
<stop offset="0.0354" stop-color="#9F19AB"/>
<stop offset="0.2438" stop-color="#AE25B1"/>
<stop offset="0.6455" stop-color="#D744BF"/>
<stop offset="1" stop-color="#FF63CE"/>
</linearGradient>
<linearGradient id="paint52_linear" x1="483.143" y1="274.891" x2="195.3" y2="98.0806" gradientUnits="userSpaceOnUse">
<stop offset="0.0354" stop-color="#9F19AB"/>
<stop offset="0.2438" stop-color="#AE25B1"/>
<stop offset="0.6455" stop-color="#D744BF"/>
<stop offset="1" stop-color="#FF63CE"/>
</linearGradient>
<linearGradient id="paint53_linear" x1="456.822" y1="317.741" x2="168.98" y2="140.932" gradientUnits="userSpaceOnUse">
<stop offset="0.0354" stop-color="#9F19AB"/>
<stop offset="0.2438" stop-color="#AE25B1"/>
<stop offset="0.6455" stop-color="#D744BF"/>
<stop offset="1" stop-color="#FF63CE"/>
</linearGradient>
<linearGradient id="paint54_linear" x1="428.877" y1="363.233" x2="141.036" y2="186.425" gradientUnits="userSpaceOnUse">
<stop offset="0.0354" stop-color="#9F19AB"/>
<stop offset="0.2438" stop-color="#AE25B1"/>
<stop offset="0.6455" stop-color="#D744BF"/>
<stop offset="1" stop-color="#FF63CE"/>
</linearGradient>
<linearGradient id="paint55_linear" x1="429.694" y1="361.904" x2="141.852" y2="185.095" gradientUnits="userSpaceOnUse">
<stop offset="0.0354" stop-color="#9F19AB"/>
<stop offset="0.2438" stop-color="#AE25B1"/>
<stop offset="0.6455" stop-color="#D744BF"/>
<stop offset="1" stop-color="#FF63CE"/>
</linearGradient>
<linearGradient id="paint56_linear" x1="431.97" y1="358.199" x2="144.129" y2="181.39" gradientUnits="userSpaceOnUse">
<stop offset="0.0354" stop-color="#9F19AB"/>
<stop offset="0.2438" stop-color="#AE25B1"/>
<stop offset="0.6455" stop-color="#D744BF"/>
<stop offset="1" stop-color="#FF63CE"/>
</linearGradient>
<linearGradient id="paint57_linear" x1="437.792" y1="348.721" x2="149.951" y2="171.912" gradientUnits="userSpaceOnUse">
<stop offset="0.0354" stop-color="#9F19AB"/>
<stop offset="0.2438" stop-color="#AE25B1"/>
<stop offset="0.6455" stop-color="#D744BF"/>
<stop offset="1" stop-color="#FF63CE"/>
</linearGradient>
<linearGradient id="paint58_linear" x1="433.489" y1="355.724" x2="145.649" y2="178.916" gradientUnits="userSpaceOnUse">
<stop offset="0.0354" stop-color="#9F19AB"/>
<stop offset="0.2438" stop-color="#AE25B1"/>
<stop offset="0.6455" stop-color="#D744BF"/>
<stop offset="1" stop-color="#FF63CE"/>
</linearGradient>
<linearGradient id="paint59_linear" x1="433.664" y1="355.436" x2="145.824" y2="178.628" gradientUnits="userSpaceOnUse">
<stop offset="0.0354" stop-color="#9F19AB"/>
<stop offset="0.2438" stop-color="#AE25B1"/>
<stop offset="0.6455" stop-color="#D744BF"/>
<stop offset="1" stop-color="#FF63CE"/>
</linearGradient>
<linearGradient id="paint60_linear" x1="435.146" y1="353.024" x2="147.306" y2="176.217" gradientUnits="userSpaceOnUse">
<stop offset="0.0354" stop-color="#9F19AB"/>
<stop offset="0.2438" stop-color="#AE25B1"/>
<stop offset="0.6455" stop-color="#D744BF"/>
<stop offset="1" stop-color="#FF63CE"/>
</linearGradient>
<linearGradient id="paint61_linear" x1="448.461" y1="331.351" x2="160.62" y2="154.542" gradientUnits="userSpaceOnUse">
<stop offset="0.0354" stop-color="#9F19AB"/>
<stop offset="0.2438" stop-color="#AE25B1"/>
<stop offset="0.6455" stop-color="#D744BF"/>
<stop offset="1" stop-color="#FF63CE"/>
</linearGradient>
<linearGradient id="paint62_linear" x1="462.246" y1="308.91" x2="174.404" y2="132.102" gradientUnits="userSpaceOnUse">
<stop offset="0.0354" stop-color="#9F19AB"/>
<stop offset="0.2438" stop-color="#AE25B1"/>
<stop offset="0.6455" stop-color="#D744BF"/>
<stop offset="1" stop-color="#FF63CE"/>
</linearGradient>
<linearGradient id="paint63_linear" x1="466.75" y1="301.578" x2="178.908" y2="124.768" gradientUnits="userSpaceOnUse">
<stop offset="0.0354" stop-color="#9F19AB"/>
<stop offset="0.2438" stop-color="#AE25B1"/>
<stop offset="0.6455" stop-color="#D744BF"/>
<stop offset="1" stop-color="#FF63CE"/>
</linearGradient>
<linearGradient id="paint64_linear" x1="471.239" y1="294.272" x2="183.396" y2="117.462" gradientUnits="userSpaceOnUse">
<stop offset="0.0354" stop-color="#9F19AB"/>
<stop offset="0.2438" stop-color="#AE25B1"/>
<stop offset="0.6455" stop-color="#D744BF"/>
<stop offset="1" stop-color="#FF63CE"/>
</linearGradient>
<linearGradient id="paint65_linear" x1="477.083" y1="284.755" x2="189.241" y2="107.946" gradientUnits="userSpaceOnUse">
<stop offset="0.0354" stop-color="#9F19AB"/>
<stop offset="0.2438" stop-color="#AE25B1"/>
<stop offset="0.6455" stop-color="#D744BF"/>
<stop offset="1" stop-color="#FF63CE"/>
</linearGradient>
<linearGradient id="paint66_linear" x1="479.44" y1="280.918" x2="191.599" y2="104.109" gradientUnits="userSpaceOnUse">
<stop offset="0.0354" stop-color="#9F19AB"/>
<stop offset="0.2438" stop-color="#AE25B1"/>
<stop offset="0.6455" stop-color="#D744BF"/>
<stop offset="1" stop-color="#FF63CE"/>
</linearGradient>
<linearGradient id="paint67_linear" x1="600.778" y1="420.512" x2="366.543" y2="470.418" gradientUnits="userSpaceOnUse">
<stop offset="0.00505051" stop-color="#45108A"/>
<stop offset="0.1122" stop-color="#541290"/>
<stop offset="0.3187" stop-color="#7D169E"/>
<stop offset="0.4747" stop-color="#9F19AB"/>
<stop offset="0.5773" stop-color="#A31CAD"/>
<stop offset="0.6865" stop-color="#B026B1"/>
<stop offset="0.799" stop-color="#C537B9"/>
<stop offset="0.9128" stop-color="#E34DC4"/>
<stop offset="1" stop-color="#FF63CE"/>
</linearGradient>
</defs>
</svg>
